<svg id="Layer_1" data-name="Layer 1" xmlns="http://www.w3.org/2000/svg" viewBox="0 0 187.94 86.88"><defs><style>.cls-1{fill:#fff;}</style></defs><title>award-wining-design</title><path class="cls-1" d="M124.5,86.51c.06-1.52-.08-3.33,0-5s-.11-2.94,0-4.58a12.06,12.06,0,0,0,0-1.7c-.47-.06-.74-.08-.74,0-.09,2.19.18,5.11,0,7.24a19.34,19.34,0,0,0,.12,2.71c-2.46-3.27-2.75-4.88-4-6.75-.5-.73-1.12-3-1.6-3.07-.27,0-.41,0-.44,0,0,.7,0,1.41,0,2.34a11.92,11.92,0,0,1,0,1.28c-.09,1.9.09,6,0,7.48,0,.21.62,0,.74.11.27-1.43-.15-6.51.09-8.67.36.88,1.13,1.85,1.6,2.78a23.73,23.73,0,0,0,3.54,5.82,1.08,1.08,0,0,0,.79,0m-10.66-8.65c.87-.87-1.67-4.36-5-3a10.64,10.64,0,0,0-2.71,5.26,7.46,7.46,0,0,0,.29,2.83c.12.36.17.76.27,1.06a7.3,7.3,0,0,0,1.6,2.14,2.72,2.72,0,0,0,1.17.62,2.58,2.58,0,0,0,1.11.14c2.27-.21,3.18-2.4,3.54-5a34.26,34.26,0,0,0-4,0c-.11,0,0,.3,0,.68s2.62-.14,3.06,0c-.14,2.1-1.84,4.32-3.85,3.44-1.48-.65-2.77-3.54-2.4-5.95a12.38,12.38,0,0,1,1.73-4,2.69,2.69,0,0,1,3.19-.44c.94.49,1.4,2.37,1.95,2.23M101.6,86.52c0,.06.81.12.79,0-.27-1.84-.14-10-.12-10.14.08-1.22.18-1.61-.68-1.4a41.2,41.2,0,0,0-.08,7.15c.08,1.26,0,3.31.09,4.39m-4.44-8.29a1.63,1.63,0,0,0,.58-.17,2.83,2.83,0,0,0-.68-1.9,3.88,3.88,0,0,0-3.25-1.38c-.15,0-.46.06-.7.08a2.79,2.79,0,0,0-2.08.93,2.75,2.75,0,0,0-.23,3.82c.81.84,2.43.64,3.7,1.1.94.35,2.22,1.13,2.3,1.9a3.3,3.3,0,0,1-1.44,3c-1.07.75-3.65.59-4.38-.43-.44-.59-.33-1.2-.56-1.82a1.37,1.37,0,0,0-.55.11,2.87,2.87,0,0,0,1.87,3.15,8.22,8.22,0,0,0,3.33.08,3.5,3.5,0,0,0,2.28-2.2c.9-2.61-.71-3.56-2.15-4.3,0,0-.53-.21-.76-.27-1.06-.35-2.66-.24-3.27-1.09-.46-.62,0-1.93.52-2.43.32-.56,3.79-1.47,4.94.49.33.56.36,1.14.55,1.41M86.68,86.57c0-.09,0-.36,0-.47-2.22-.4-3.85.4-5.4-.15a30.63,30.63,0,0,1,0-4.87A14.83,14.83,0,0,1,84.46,81c.5-.14,1,.21,1-.49.11-.43-.65-.24-1.35-.23-.4,0-.85-.06-1.14,0a4.56,4.56,0,0,1-1.63,0c.26-1.38-.15-3.3.12-4.61.46-.09,2.46.18,5.18,0a1.41,1.41,0,0,0,0-.67c-.88,0-4.18-.23-6,0-.06,3.06-.18,5.19-.26,7.54,0,1.4.09,2.77.14,4.11a31.53,31.53,0,0,0,4.53.15,3.18,3.18,0,0,0,1.64-.17m-13.34-.77c-1,.46-2.86.14-3.62.2,0-2.14.08-4,.06-5.82,0-1.54,0-2.77,0-4.44.71.12,2.05-.08,2.89.36a5,5,0,0,1,2.63,5c0,1.78-.59,4.09-2,4.71m-4.44.76a8.85,8.85,0,0,0,3.54.14A3.63,3.63,0,0,0,75.14,85c1.11-1.63,1.29-4.32.77-6.58A6.19,6.19,0,0,0,69,75c-.06,2.08-.08,3.89-.09,5.67a42.09,42.09,0,0,0,0,5.9"/><path class="cls-1" d="M142.85,54.58c1.24-1.24-2.39-6.23-7.15-4.34-1.5,1.46-3.65,5.06-3.87,7.52a10.63,10.63,0,0,0,.41,4c.17.52.24,1.09.39,1.52a10.43,10.43,0,0,0,2.28,3.06,3.89,3.89,0,0,0,1.67.89,3.71,3.71,0,0,0,1.58.2c3.24-.3,4.54-3.43,5.06-7.13a49.48,49.48,0,0,0-5.65,0c-.15,0,0,.43,0,1,0,.35,3.74-.2,4.37,0-.19,3-2.63,6.17-5.5,4.91-2.11-.93-4-5.06-3.43-8.49A17.7,17.7,0,0,1,135.51,52a3.85,3.85,0,0,1,4.56-.63c1.35.7,2,3.39,2.78,3.19M126.58,66.94c.09-2.17-.11-4.76,0-7.1s-.15-4.19,0-6.54a17.22,17.22,0,0,0,0-2.43c-.67-.09-1.07-.11-1.07,0-.13,3.13.26,7.3,0,10.34a27.66,27.66,0,0,0,.17,3.87c-3.52-4.67-3.93-7-5.76-9.65-.72-1-1.61-4.34-2.28-4.39-.39,0-.59-.07-.63,0,0,1-.07,2,0,3.34a16.62,16.62,0,0,1,0,1.82c-.13,2.72.13,8.52,0,10.69,0,.3.89.07,1.06.15.39-2-.22-9.3.13-12.38.52,1.26,1.61,2.65,2.28,4,1.72,3.39,2.74,5.74,5.06,8.32a1.55,1.55,0,0,0,1.13,0m-17.14,0c0,.09,1.15.17,1.13,0-.39-2.63-.2-14.32-.17-14.49.11-1.74.26-2.3-1-2a58.84,58.84,0,0,0-.11,10.21c.11,1.8,0,4.74.13,6.28m-6.78,0c.09-2.17-.11-4.76,0-7.1s-.15-4.19,0-6.54a17.19,17.19,0,0,0,0-2.43c-.67-.09-1.06-.11-1.06,0-.13,3.13.26,7.3,0,10.34a27.66,27.66,0,0,0,.17,3.87c-3.52-4.67-3.93-7-5.76-9.65-.72-1-1.61-4.34-2.28-4.39-.39,0-.59-.07-.63,0,0,1-.07,2,0,3.34a16.62,16.62,0,0,1,0,1.82c-.13,2.72.13,8.52,0,10.69,0,.3.89.07,1.07.15.39-2-.22-9.3.13-12.38.52,1.26,1.61,2.65,2.28,4,1.72,3.39,2.74,5.74,5.06,8.32a1.55,1.55,0,0,0,1.13,0m-15.92,0c.09-2.17-.11-4.76,0-7.1s-.15-4.19,0-6.54a17.18,17.18,0,0,0,0-2.43c-.67-.09-1.06-.11-1.06,0-.13,3.13.26,7.3,0,10.34a27.66,27.66,0,0,0,.17,3.87c-3.52-4.67-3.93-7-5.76-9.65-.72-1-1.61-4.34-2.28-4.39-.39,0-.59-.07-.63,0,0,1-.07,2,0,3.34a16.63,16.63,0,0,1,0,1.82c-.13,2.72.13,8.52,0,10.69,0,.3.89.07,1.07.15.39-2-.22-9.3.13-12.38.52,1.26,1.61,2.65,2.28,4,1.72,3.39,2.74,5.74,5.06,8.32a1.55,1.55,0,0,0,1.13,0M69.6,67c0,.09,1.15.17,1.13,0-.39-2.63-.2-14.32-.17-14.49.11-1.74.26-2.3-1-2a58.84,58.84,0,0,0-.11,10.21c.11,1.8,0,4.74.13,6.28m-5.21-16.1c-1-.22-1.09.37-1.3,1.17a35.86,35.86,0,0,0-1,5.32c-.61,1.85-.7,5.26-1.46,7.28-1.09-4.11-1.8-7.21-2.39-9.78C58,53.71,58.13,50.8,56.68,52a33.2,33.2,0,0,1-1.26,6.39c-.61,2.06-.93,4.45-1.54,6.21-.78-4.28-1.61-9.95-2.67-13.64a2.75,2.75,0,0,1-1.15.09c.33,2,2.28,10.34,2.37,11.93a29.13,29.13,0,0,0,.91,4c.11.11.13.37.89.17,1.3-3.61,2-8,3.11-11.34a82.32,82.32,0,0,0,2.06,8.91c.24,1,.15,2.24,1.52,2.43.43,0,1-3.71,1.54-6.3.37-1.82.91-3.74,1.3-5.65s.76-2.84.63-4.37"/><path class="cls-1" d="M178.05,38.68c-3.65,1.59-9.93.48-12.57.69-.11-7.45.26-13.74.21-20.24-.05-5.34,0-9.62.16-15.43,2.48.42,7.13-.26,10,1.27,7.19,3.8,9.51,10.72,9.14,17.33-.11,6.18-2.06,14.21-7,16.38m-15.43,2.64c3.22,1.06,8.45,1.06,12.31.48A12.61,12.61,0,0,0,184.29,36c3.86-5.65,4.49-15,2.69-22.88-3.91-9.09-13.74-13.74-23.88-12-.21,7.24-.26,13.53-.32,19.71-.1,6.76-1,12.95-.16,20.5M147.15,15.16c-3.38,6-7.4,7.87-20.34,6.29-.26-6.66.69-11.62.48-17.65,12.57-1.11,17.59,1.37,20.24,7.45a7.28,7.28,0,0,1-.37,3.91m-4.7,7.92c5-1.58,10-7.92,6.29-14.48-2.48-4.65-4-7.4-17-7.93-3.86-.16-5.18.58-7.18.42-.63,7.19-.32,14-.53,21.4-.11,5-.16,11.83.05,18.17.05.9.32,1.22,2.54.79.53-5.65.32-13.21.42-17.22,3.8.26,8.61.69,12.73,0,1.16,4.23,2.22,7.66,3.38,11.57,1.48,5,1.21,6.71,4.07,5.76-.32-6.5-3.91-11.78-4.81-18.49m-46-17.44A222,222,0,0,0,104,26.84c-1,.37-4,.21-4.81.26-3.91.16-5.55-.63-10.83-.21a173.92,173.92,0,0,1,8-21.24m13.95,35.77c2.22.26.47-1.43.47-2.32-.74-3.75-2.17-6.6-3.38-10.57-1.9-6-3.7-8.29-4.54-12.15-.79-2-3.7-12.73-6.08-16.38-2.43.05-2.38,2.64-2.91,4-2.06,5.44-5.28,14.05-5.49,14.79C86.65,25,83.48,34.4,81,40.95a2.82,2.82,0,0,0,2.59.32c.21-.11,2.33-6,2.48-6.39.79-1.85.9-4.12,2.22-5.34,4-.58,11,.48,16.8.05,1.64,3.59,1.53,6.39,3.17,10a4.5,4.5,0,0,0,.69,1.74c.42.32.85.21,1.43.11M74,2.06c-2.38-.53-2.64.9-3.17,2.85a87.41,87.41,0,0,0-2.38,12.94c-1.48,4.49-1.69,12.79-3.54,17.7-2.64-10-4.39-17.54-5.81-23.78-.63-2.8-.32-9.88-3.86-7A80.92,80.92,0,0,1,52.2,20.34c-1.48,5-2.27,10.83-3.75,15.11C46.55,25,44.54,11.25,42,2.27a6.67,6.67,0,0,1-2.8.21c.79,4.81,5.55,25.15,5.76,29,.26,1.58,1.59,8.77,2.22,9.83.26.26.32.9,2.17.42,3.17-8.77,5-19.5,7.56-27.58.84,7,3.54,15.59,5,21.66.58,2.48.37,5.44,3.7,5.92,1.06-.05,2.54-9,3.75-15.32.9-4.44,2.22-9.09,3.17-13.74,1-4.81,1.85-6.92,1.53-10.62M15.43,5.65A221.71,221.71,0,0,0,23,26.84c-1,.37-4,.21-4.81.26-3.91.16-5.55-.63-10.83-.21a173.61,173.61,0,0,1,8-21.24M29.38,41.42c2.22.26.48-1.43.48-2.32-.74-3.75-2.17-6.6-3.38-10.57-1.9-6-3.7-8.29-4.54-12.15-.79-2-3.7-12.73-6.08-16.38-2.43.05-2.38,2.64-2.91,4C10.88,9.46,7.66,18.07,7.45,18.81,5.65,25,2.48,34.4,0,40.95a2.82,2.82,0,0,0,2.59.32c.21-.11,2.32-6,2.48-6.39.79-1.85.9-4.12,2.22-5.34,4-.58,11,.48,16.8.05,1.64,3.59,1.53,6.39,3.17,10a4.49,4.49,0,0,0,.69,1.74c.42.32.85.21,1.43.11"/></svg>