<svg xmlns="http://www.w3.org/2000/svg" xmlns:xlink="http://www.w3.org/1999/xlink" viewBox="0 0 191.95 70.74"><defs><style>.cls-1{fill:none;}.cls-2{isolation:isolate;}.cls-3{mix-blend-mode:multiply;}.cls-4{clip-path:url(#clip-path);}.cls-5{fill:#5f5857;}.cls-6{clip-path:url(#clip-path-2);}</style><clipPath id="clip-path" transform="translate(-1.34 -0.86)"><rect id="SVGID" class="cls-1" x="0.48" width="193.67" height="20.98"/></clipPath><clipPath id="clip-path-2" transform="translate(-1.34 -0.86)"><rect id="SVGID-2" data-name="SVGID" class="cls-1" y="27.03" width="192.65" height="46.47"/></clipPath></defs><title>come-in-for-a-cuppa</title><g class="cls-2"><g id="Layer_1" data-name="Layer 1"><g class="cls-3"><g class="cls-4"><path class="cls-5" d="M186.48,3.42A100.21,100.21,0,0,0,189.92,13a11.2,11.2,0,0,1-2.17.12c-1.77.07-2.51-.29-4.9-.1a78.55,78.55,0,0,1,3.63-9.61m6.31,16.18c1,.12.21-.65.21-1.05a47.54,47.54,0,0,0-1.53-4.78c-.86-2.72-1.67-3.75-2.05-5.5-.36-.91-1.67-5.76-2.75-7.41-1.1,0-1.07,1.19-1.31,1.81C184.42,5.14,183,9,182.87,9.37c-.81,2.82-2.25,7.05-3.37,10a1.28,1.28,0,0,0,1.17.14c.1,0,1.05-2.72,1.12-2.89.36-.84.41-1.86,1-2.41,1.79-.26,5,.22,7.6,0,.74,1.63.69,2.89,1.43,4.52a2,2,0,0,0,.31.79c.19.14.38.1.65,0M164.87,7.72c-1.53,2.72-3.35,3.56-9.2,2.84-.12-3,.31-5.26.21-8,5.69-.5,8,.62,9.15,3.37a3.3,3.3,0,0,1-.17,1.77m-2.13,3.58c2.27-.72,4.54-3.58,2.84-6.55-1.12-2.1-1.79-3.35-7.67-3.58-1.74-.07-2.34.26-3.25.19-.29,3.25-.14,6.33-.24,9.68,0,2.25-.07,5.35,0,8.22,0,.41.14.55,1.15.36.24-2.56.14-6,.19-7.79a25.83,25.83,0,0,0,5.76,0c.53,1.91,1,3.47,1.53,5.23.67,2.27.55,3,1.84,2.6-.14-2.94-1.77-5.33-2.17-8.36M136.05,14.2c-.24-3.66.86-9.49,3.16-11.21,1.46-1.27,4.11-.41,5.45.48a8.71,8.71,0,0,1,2.17,6c0,.21.12.24.12.45,0,2.32-1.74,6.69-2.65,7.48a10.91,10.91,0,0,1-3.13,1.22,5,5,0,0,1-5.11-4.47m11.88-4.35c0-4.21-1.72-7.77-5.11-8.6A9,9,0,0,0,139.87,1a4.87,4.87,0,0,0-2.08,1.41c-1.82,1.89-2.34,4.92-2.63,7.62-.17,1.84-.55,3.85,0,5.35.12.26.26.77.45,1.1s.36.5.57.81a5.49,5.49,0,0,0,5.73,2.44c.31,0,.84-.38,1.39-.53a4.18,4.18,0,0,0,1.67-.79c1.74-1.24,2.94-6,2.94-8.6m-18.38-7a1.44,1.44,0,0,0,.21-1.39c-2.89-.41-7.17.43-10.3,0-.07,5.88-.19,12.66,0,18.3a2,2,0,0,0,1.08,0c.36-.91,0-6.47,0-8.75,2,.48,5.23-.19,7.15.07.29-.24,0-1.15,0-1.29-.79-.31-2.61,0-3.94,0-1.12.09-2.08-.17-3.18,0,.34-2.27,0-4.73.22-7,2.56-.12,7.55-.07,8.72,0M103.88,19.48c.1-2.39-.12-5.23,0-7.81s-.17-4.61,0-7.19a19.06,19.06,0,0,0,0-2.68c-.74-.1-1.17-.12-1.17,0-.14,3.44.29,8,0,11.37a30.63,30.63,0,0,0,.19,4.25c-3.87-5.14-4.33-7.67-6.33-10.61C95.69,5.69,94.71,2.06,94,2c-.43,0-.64-.07-.69,0,0,1.1-.07,2.22,0,3.68a18.41,18.41,0,0,1,0,2c-.14,3,.14,9.37,0,11.76,0,.33,1,.07,1.17.17.43-2.25-.24-10.23.14-13.62.57,1.39,1.77,2.92,2.51,4.37,1.89,3.73,3,6.31,5.57,9.15a1.71,1.71,0,0,0,1.24,0M85,19.5c0,.1,1.27.19,1.24,0-.43-2.89-.21-15.75-.19-15.94C86.2,1.65,86.37,1,85,1.36a64.59,64.59,0,0,0-.12,11.23c.12,2,0,5.21.14,6.91M69,19.57c0-.14,0-.57,0-.74-3.49-.62-6,.62-8.48-.24a48,48,0,0,1,0-7.65,23.26,23.26,0,0,1,5-.1c.79-.22,1.65.33,1.53-.76.17-.67-1-.38-2.13-.36-.62,0-1.34-.1-1.79-.07-1,0-1.89.34-2.56,0,.41-2.17-.24-5.19.19-7.24.72-.14,3.87.29,8.15,0a2.23,2.23,0,0,0,0-1.05c-1.39,0-6.57-.36-9.44-.07-.1,4.8-.29,8.15-.41,11.85-.07,2.2.14,4.35.22,6.45a49.56,49.56,0,0,0,7.12.24A5,5,0,0,0,69,19.57M40.05,1.65c-.14-.62-.86-.67-1.51-.6,0,.12.29,18.21.07,18.47.45.19,1.17.19,1.29-.12.12-3.87-.12-11.83-.07-14.53.36,1.5,3.9,10.18,4.49,13.12A6,6,0,0,0,45,19.36c.33.17.24,0,.45,0a38.21,38.21,0,0,0,2.05-5.09c1.65-3.46,2.29-6.88,3.42-9.08a87.19,87.19,0,0,0-.07,14.46c.24.19.45.19,1.05.14a54.7,54.7,0,0,0,0-5.59c-.07-1,0-12.31.19-12.88C52,.5,51,1.46,51,1.51c-1.51,3-2.27,5.95-3.63,9.06-.79,1.79-1.15,3.46-2.18,5.54C43.35,11.5,42,6.55,40.05,1.65M20.48,14.2c-.24-3.66.86-9.49,3.15-11.21,1.46-1.27,4.11-.41,5.45.48a8.71,8.71,0,0,1,2.17,6c0,.21.12.24.12.45,0,2.32-1.74,6.69-2.65,7.48a10.89,10.89,0,0,1-3.13,1.22,5,5,0,0,1-5.11-4.47M32.36,9.85c0-4.21-1.72-7.77-5.11-8.6A9,9,0,0,0,24.31,1a4.87,4.87,0,0,0-2.08,1.41c-1.82,1.89-2.34,4.92-2.63,7.62-.17,1.84-.55,3.85,0,5.35.12.26.26.77.45,1.1s.36.5.57.81a5.49,5.49,0,0,0,5.73,2.44c.31,0,.84-.38,1.39-.53a4.18,4.18,0,0,0,1.67-.79c1.74-1.24,2.94-6,2.94-8.6M4.74,19.09a25.68,25.68,0,0,0,3.11,1c2.44.48,4.8-1.6,5.57-2.82,2-3,.41-2.68.22-2.77-.41-.19-1.24,2.27-1.62,2.68a5,5,0,0,1-6.33,1.22,5.48,5.48,0,0,1-2.87-4.2c-.65-3.73.79-9.63,3.08-11.61,1.36-1.2,3.42-.65,4.76.33A4.93,4.93,0,0,1,12.36,5c.36.93.38,2.53,1,2.56s.65.14.53-1.36C13.41,2.85,10.37.55,6.53,1c-2.17.24-3.68,3.63-4.16,5.21a16.35,16.35,0,0,0-.76,3.73,15.26,15.26,0,0,1-.22,1.74c-.31,3.18.88,6,3.35,7.41" transform="translate(-1.34 -0.86)"/></g></g><g class="cls-3"><g class="cls-6"><path class="cls-5" d="M175.67,34.58a221.77,221.77,0,0,0,7.61,21.19c-1,.37-4,.21-4.81.26-3.91.16-5.55-.63-10.83-.21a173.87,173.87,0,0,1,8-21.24m13.95,35.77c2.22.26.48-1.43.48-2.32-.74-3.75-2.17-6.6-3.38-10.57-1.9-6-3.7-8.29-4.54-12.15-.79-2-3.7-12.73-6.08-16.38-2.43.05-2.38,2.64-2.91,4-2.06,5.44-5.28,14.05-5.49,14.79-1.8,6.24-5,15.59-7.45,22.14a2.81,2.81,0,0,0,2.59.32c.21-.11,2.32-6,2.48-6.39.79-1.85.9-4.12,2.22-5.34,4-.58,11,.47,16.8.05,1.64,3.59,1.53,6.39,3.17,10a4.51,4.51,0,0,0,.69,1.74c.42.32.84.21,1.43.11M142.92,51.6c-4.39,1.37-9,.26-14.21,0,.48-5.76-.48-12.89,0-16.91.1-1.06-.21-1.32.42-2.11,4.86-.26,10.83-.11,15.22,1.9,3.86,1.69,4.7,6.13,3.38,10.83-.58,2.06-3.28,5.81-4.81,6.29M129,54.5c4.33.69,13.1,1.06,16.54-1.37,5.13-3.54,8.51-15.69,2-20.08-5.6-3.8-14.05-4.17-21.19-3.38-.58,5.34-.11,9.88-.11,15.11-.05,2.8-.26,6.55-.16,9.19.21,3.65-.05,7.18.26,11.73.16,2.38-.85,5.07,2.75,4.7,1-6.13-.32-9.09-.05-15.9M103.71,51.6c-4.39,1.37-9,.26-14.21,0,.48-5.76-.48-12.89,0-16.91.11-1.06-.21-1.32.42-2.11,4.86-.26,10.83-.11,15.22,1.9,3.86,1.69,4.7,6.13,3.38,10.83-.58,2.06-3.28,5.81-4.81,6.29M89.77,54.5c4.33.69,13.1,1.06,16.54-1.37,5.13-3.54,8.51-15.69,2-20.08-5.6-3.8-14.05-4.17-21.19-3.38C86.49,35,87,39.55,87,44.78c-.05,2.8-.26,6.55-.16,9.19.21,3.65-.05,7.18.26,11.73.16,2.38-.85,5.07,2.75,4.7,1-6.13-.32-9.09-.05-15.9M43.38,30.09c-.26,2-.11,4.44-.26,8.4-.42,7.93-.63,15.16,1,21.56,1.32,5.39,5.18,10.73,11.52,11.47a10,10,0,0,0,9.14-3.59c2.75-3.7,4.86-12.94,5.07-19.5.16-4.91-.21-12.79-.26-16.91,0-2.27.42-.79-2.38-1.16-.21,3.44-.21,9,0,13,.53,9.25-1.69,22.51-7.24,25-4.76,2.17-10-2.11-12-6.23-3.75-7.71-1.8-22.35-1.74-30.86,0-2.27.58-.69-2.8-1.22M9.4,69.24a56.67,56.67,0,0,0,6.87,2.11c5.39,1.06,10.62-3.54,12.31-6.23,4.39-6.55.9-5.92.48-6.13-.9-.42-2.75,5-3.59,5.92-3,4.17-8.77,5.23-14,2.69-3.7-1.74-5.71-5.49-6.34-9.3C3.7,50.06,6.87,37,11.94,32.63c3-2.64,7.55-1.43,10.51.74a10.89,10.89,0,0,1,3.8,4.76c.79,2.06.85,5.6,2.17,5.65,1.21-.1,1.43.32,1.16-3-1-7.45-7.71-12.52-16.22-11.52-4.81.53-8.14,8-9.19,11.52A36.17,36.17,0,0,0,2.48,49,33.32,33.32,0,0,1,2,52.86c-.69,7,2,13.21,7.4,16.38" transform="translate(-1.34 -0.86)"/></g></g></g></g></svg>
