<svg id="Layer_1" data-name="Layer 1" xmlns="http://www.w3.org/2000/svg" viewBox="0 0 183.12 87.67"><defs><style>.cls-1{fill:#808285;}</style></defs><title>we-love-design</title><path class="cls-1" d="M183.12,87V41h-6.57V68.41h-.13L168.19,41h-7.76V87H167V56.51h.13L176.28,87ZM134.67,40.34c-6.9,0-10.85,4.08-10.85,11V76.63c0,7,3.94,11,10.85,11s11-4.08,11-11V61.58H134.87V68h3.94V75.9c0,3.68-1.31,5.32-4,5.32s-4-1.64-4-4.67V51.45c0-3,1.38-4.67,4.07-4.67s4.08,1.64,4.08,5.32v2.76l6.7-.33V51.39c0-7-4-11-11-11M108.84,41h-7V87h7Zm-30.37-.66c-6.44,0-10.38,3.55-10.38,10.32v1.12c0,5,2.1,8.74,8.28,14.46,4.54,4.14,5.85,6.24,5.85,9.14v1.45c0,3.29-1.71,4.4-3.81,4.4-2.5,0-3.94-1.51-3.94-4.6V73.47l-6.7.66v3c0,6.77,4.34,10.52,10.78,10.52s10.65-3.55,10.65-10.32V75.11c0-5.32-2.1-9.07-8.28-14.79-4.54-4.14-5.85-6.24-5.85-8.81v-1c0-2.63,1.45-3.75,3.48-3.75,2.43,0,3.62,1.45,3.62,4.6v1.45l6.7-.66V50.86c0-6.77-3.94-10.52-10.38-10.52m-22.35,7.1V41H36.54V87H56.13V80.57H43.51V66.9H53.7V60.46H43.51v-13ZM7,47.44H9.73c3.35,0,4.86,1.77,4.86,5.65V74.92c0,3.88-1.51,5.65-4.86,5.65H7ZM0,41V87H10c7.49,0,11.57-4.07,11.57-11.63V52.64C21.56,45.08,17.48,41,10,41Z"/><path class="cls-1" d="M146.61.57l2.67,0,1.2.22,1.89-.22,3.56.28.68.2.63.37.32.57-.11.72-.52.43-1.46.26-4.41-.06-.78.17-.22-.06-2.18.11-.57.31-.43.57-.2.67-.17,1.63.11.63-.11.15.11,1.52.26.69.46.43,2.06.46h2l.83.11.8-.11.83.11.63.31.41.46a1.57,1.57,0,0,1,.22.74l-.43.57-.63.26-.78-.06-.83.11-4.41.15-.68.22-.32.63-.41,2.35-.06,2.52.26,1.46.46.41,1.43.37,1-.15.54.09,1.78.11,1.46-.11,2.61.26.68.43.2.74-.32.63-.67.26-6.65.41-1.83-.2-1.11.06-1.3-.26-.63-.37-.43-.48-.26-.67-.05-5-.11-.78.32-1.46-.15-.69.26-2.35-.2-2.52.35-1.46,0-.89.2-1-.17-3.72.37-.72L145.2,1l.72-.15Zm-21.89.57.57.2.35.48,1.57,3.81.11.72,2,7.24.83,1.52.54.09.35-.41.48-1.11.06-.63.67-2.35.57-1,.06-.72.48-1.83.46-1.11.11-.67.2-.57.05-.63-.11-.37.68-1.15L135,2l.37-.43.52-.26.59.2.26.54V3.44l-.22.52-1.09,4.35-.06.74-.63,1.72-.83,3.81-.26.54L132,22l-.52,1-.43.32-.57.22-.52-.28-.78-.78-.26-.52-.89-3v-.63l-.43-1.2-.83-3.83-.48-1.09.06-.17-1.67-5.76-.11-.61-.26-.54-.43-1.93-.06-.74L124,2l.32-.52ZM109.43,2.72l-.74.26-1.2.67-1.35,1.48-.37.57L104.5,9.15l-.05.89-.15.8V12.5l.2.74.26,2.55,1,2.78.78,1.09.48.48,1.09.78,1.41.48.89-.06.74-.2,1.2-.68,1-.89,1.72-3,.57-4.15-.46-3.24-.28-.72-.09-.85L113.7,5l-.41-.52-.94-.89-.63-.37L111,3h-.41l-.43-.17ZM110.09,0l1.17.15,1.81.74a2.73,2.73,0,0,1,.91.41l.72.54L116,3.13l.78,1.78.48.8.78,3v.57l.17.57v2.2l-.26,1.67,0,.57-.63,3.24-.93,1.63-.59.69.06.37-.26.57-.52.78-1.37,1.2-2,1.15-1-.2-1.89.06-1.06-.2-.89-.43-1.52-1.05-1.15-1.41-.46-.78-2-5.72.11-2.13-.15-1.43.15-1.09,1.46-5,1.06-1.46,1.3-1.3L107.06.78,109,.15ZM84.36.83l.89.31.52.72.32.89.05,1.11-.2,1-.06,6.55L86.13,13l-.43,4.07.37,2.72a1.76,1.76,0,0,0,.43.74l.89.31,6,.2,1.57.2a2,2,0,0,1,.83.43l.26.89-.57.68-.89.26-1.06.15-4.24.26-1-.09-.52,0L86,23.76l-1.87-.52-.59-.63-.41-.8L83,16.37l.17-1-.17-5,.11-.67L83,8.78l.17-1.24L83,4.39,83,1.92l.52-.68ZM48.84.57l2.67,0,1.2.22L54.6.61l3.56.28.68.2.63.37.31.57-.11.72-.52.43-1.46.26-4.41-.06-.78.17-.22-.06-2.18.11-.57.31-.43.57-.2.67-.17,1.63.11.63-.11.15.11,1.52.26.69.46.43,2.05.46h2l.83.11.8-.11.83.11.63.31.41.46a1.6,1.6,0,0,1,.22.74l-.43.57-.63.26-.78-.06-.83.11-4.41.15-.68.22-.32.63-.41,2.35-.05,2.52.26,1.46.46.41,1.43.37,1-.15.54.09,1.78.11,1.46-.11,2.61.26.68.43.2.74-.32.63-.67.26L51.67,24l-1.83-.2-1.11.06-1.3-.26-.63-.37-.43-.48L46.12,22l-.06-5L46,16.22l.32-1.46-.15-.69.26-2.35-.2-2.52.35-1.46,0-.89.2-1-.17-3.72.37-.72L47.43,1l.72-.15ZM25.57,1.67l.78.32.85,2.41,1.15,8.28.26.83.37.2.26-.15.41-.69.28-.78,0-.74.37-1,.17-.94.26-.78,1-2.26.61-.46L33,5.76l.52.78,1.48,5L35.68,13l.57.48a1.94,1.94,0,0,0,.52-.52l.26-.8.37-2.67-.06-.15L38.49,3l.37-.74.43-.17.46.06.43.69,0,.78L39.12,12l.11.72L38,22.44l-.26.8-.68.41-.57.06-.31-.15-.46-.63-.37-.69-.17-.89-1.57-6-.3-.32.15-.8-.15-.41-.43-.63-.48-.11-.26.2-.35.74-.31,1.37.15.3-.37.68L30,21.61l-.57,1.57-.63.46-.72.11-.8-.52-.35-.74-.11-.72.11-.59-.11-.41v-.89L26.14,14l-.57-2.67.06-1-.37-1.78.06-.78L24.79,5l.09-1L24.83,3l.28-.8a3,3,0,0,1,.46-.57"/></svg>