<svg id="Layer_1" data-name="Layer 1" xmlns="http://www.w3.org/2000/svg" viewBox="0 0 285.41 114.14"><defs><style>.cls-1{fill:#fff;}</style></defs><title>folio</title><path class="cls-1" d="M231.81,95.43c-3.41,0-5.56-2.91-5.56-7.71,0-11.76,12.64-43.23,23.76-43.23,2.91,0,5.18,2.15,5.18,7.46,0,4.8-2,12.64-5.06,20.35a7.82,7.82,0,0,0-6.57,13.27c-3.67,5.81-7.84,9.86-11.76,9.86M280,68.76c-7,11.76-14.79,16.05-21.49,14.66C263.92,73.19,267,61.18,267,53.34c0-12.13-7.08-17.82-16.43-17.82-23.13,0-36,34.63-36,50.94,0,12.26,7.2,17.95,16.56,17.95s17.06-5.69,22.88-13.65C266.7,94,277.82,86,285.41,72.68A7,7,0,0,0,280,68.76m-62.06,0c-8.6,14.66-18.58,27.18-25,27.18-2.78,0-5.18-2.4.38-16.18l17.19-42.6H197.18L182,74.7c-9.1,22.63-2.91,29.7,7.33,29.7,12.64,0,23.89-14.16,34-31.73a7,7,0,0,0-5.44-3.92m-8-39.31a7.88,7.88,0,0,0,7.84-7.84,7.77,7.77,0,0,0-7.84-7.71,7.66,7.66,0,0,0-7.71,7.71,7.77,7.77,0,0,0,7.71,7.84m-25.4,39.31c-8.6,14.66-18.58,27.18-25,27.18-2.78,0-5.18-2.4.38-16.18l27.3-67.62H173.92L148.64,74.7c-9.1,22.63-2.91,29.7,7.33,29.7,12.64,0,23.89-14.16,34-31.73a7,7,0,0,0-5.43-3.92M103,95.43c-3.41,0-5.56-2.91-5.56-7.71,0-11.76,12.64-43.23,23.76-43.23,2.91,0,5.18,2.15,5.18,7.46,0,4.8-2,12.64-5.06,20.35a7.82,7.82,0,0,0-6.57,13.27c-3.67,5.81-7.84,9.86-11.76,9.86m48.16-26.67c-7,11.76-14.79,16.05-21.49,14.66,5.44-10.24,8.47-22.25,8.47-30.08,0-12.13-7.08-17.82-16.43-17.82-23.13,0-36,34.63-36,50.94,0,12.26,7.21,17.95,16.56,17.95s17.06-5.69,22.88-13.65C137.9,94,149,86,156.61,72.68a7,7,0,0,0-5.44-3.92M88.86,20.86C93.16,10.36,100,8.09,100,8.09l-2.4-8C92.65.13,88.1,2.4,84.43,5.81,70.4,9.61,50.69,0,35.39,0,18.08,0,9.48,12.14,9.48,23.26c0,11.5,9.23,20.48,21,20.48a20.8,20.8,0,0,0,15.17-6.19L40.07,29.2s-4,4.17-9.73,4.17A9.76,9.76,0,0,1,20.22,23.26c0-5.94,4.3-12.89,15.17-12.89S62.95,17.19,77,17.06l-14,34.76H51.82L49,58.65H60.29L53.47,75.59c-6.07,16.56-14,27.55-26.8,27.55C15.93,103.14,11,95.31,11,88.48s5.18-15.67,16.43-14.79V62.57A25.73,25.73,0,0,0,0,88.23c0,13.4,10,25.91,26.8,25.91,11,0,26.67-5.44,36-29.45l10.62-26H85.07l2.78-6.83H76.22Z"/></svg>