<svg xmlns="http://www.w3.org/2000/svg" xmlns:xlink="http://www.w3.org/1999/xlink" viewBox="0 0 184.21 180.83"><defs><style>.cls-1{fill:none;}.cls-2{isolation:isolate;}.cls-3{mix-blend-mode:multiply;}.cls-4{clip-path:url(#clip-path);}.cls-5{fill:#4d5358;}.cls-6{fill:#fff;}</style><clipPath id="clip-path" transform="translate(0 -1)"><rect id="SVGID" class="cls-1" x="11.93" width="157.28" height="29.31"/></clipPath></defs><title>long-live-hand-made</title><g class="cls-2"><g id="Layer_1" data-name="Layer 1"><g class="cls-3"><g class="cls-4"><path class="cls-5" d="M168.21,5.1V1.38h-11.3V27.93h11.3V24.21h-7.28V16.32h5.88V12.61h-5.88V5.1Zm-23.4,22.83,4.48-26.54h-4l-3,20.25h-.08l-3-20.25h-4.09l4.47,26.54ZM127.52,1.38h-4V27.93h4Zm-18,22.75V1.38h-4V27.93h10.73V24.13ZM80.09,1c-4,0-6.26,2.35-6.26,6.37V21.94c0,4,2.28,6.37,6.26,6.37s6.33-2.35,6.33-6.37V13.25H80.2V17h2.27v4.55c0,2.12-.76,3.07-2.31,3.07s-2.31-.95-2.31-2.69V7.41c0-1.74.8-2.69,2.35-2.69s2.35.95,2.35,3.07V9.38l3.87-.19V7.37c0-4-2.31-6.37-6.33-6.37M65.18,27.93V1.38H61.39V17.2h-.08L56.58,1.38H52.1V27.93h3.79V10.33H56l5.27,17.6ZM37,4.72c1.59,0,2.47,1.06,2.47,3v13.8c0,2-.87,3-2.47,3s-2.46-1.06-2.46-3V7.75c0-2,.87-3,2.46-3M37,1c-4,0-6.49,2.54-6.49,6.71V21.59c0,4.17,2.47,6.71,6.49,6.71s6.48-2.54,6.48-6.71V7.72C43.46,3.54,41,1,37,1M17,24.13V1.38h-4V27.93H23.66V24.13Z" transform="translate(0 -1)"/></g></g><path class="cls-6" d="M184.21,128.57V119.9H157.85v61.94h26.37v-8.67h-17v-18.4h13.71v-8.67H167.23V128.57Zm-66.18,0h3.72c4.51,0,6.55,2.39,6.55,7.61v29.38c0,5.22-2,7.61-6.55,7.61H118Zm-9.38-8.67v61.94H122.1c10.09,0,15.57-5.49,15.57-15.66V135.56c0-10.18-5.49-15.66-15.57-15.66ZM74,133.17h.26l3.8,26.1H70.16Zm16.9,48.66L80.16,119.9H68.22L57.51,181.84h9.38l2-14.07H79.28l2,14.07Zm-51.14,0V119.9H27.08l-7.26,33.27h-.18L12.3,119.9H0v61.94H8.85v-43H9L16.81,173h5.57l7.79-34.15h.18v43Z" transform="translate(0 -1)"/><path class="cls-6" d="M161.65,52.73h3.72c4.51,0,6.55,2.39,6.55,7.61V89.72c0,5.22-2,7.61-6.55,7.61h-3.72Zm-9.38-8.67V106h13.45c10.09,0,15.57-5.49,15.57-15.66V59.72c0-10.18-5.49-15.66-15.57-15.66ZM131.13,106V44.06h-8.85V81h-.18L111,44.06H100.6V106h8.85V64.94h.18L121.92,106ZM65.92,57.33h.27L70,83.44H62.11ZM82.82,106,72.11,44.06H60.17L49.46,106h9.38l2-14.07H71.23l2,14.07Zm-51.14,0V44.06H22.3v26.1H11.15V44.06H1.77V106h9.38V79H22.3v27Z" transform="translate(0 -1)"/></g></g></svg>
