<svg id="Layer_1" data-name="Layer 1" xmlns="http://www.w3.org/2000/svg" viewBox="0 0 235.14 61.79"><defs><style>.cls-1{fill:#808285;}</style></defs><title>making-people-happy</title><path class="cls-1" d="M221.64,39.6l.57.2,1.35,1.41L227,47l.35.31.63.11.48-.2.41-.31,2-2.94.2-.46.63-.8,1.09-1.78.63-.78.43-.31.57-.11.46.26.22.54-.22,1.2-.63,1.46-3.13,4.67-.2.52-1.43,2.09-.46.95.09.57.22,4-.48,5.18-.26.41-.46.26-.52-.2-.63-.78-.28-1.17.11-.63V56.4l-.2-1.2.2-1-.11-.41.11-1V51.47l-.72-2.09-5.41-8.06-.09-.57.09-.63.37-.37Zm-16.33.83-2,.2-.57.57-.17,1,.22,1.94-.22,2,.32,1.15.63.48,1,.2,1.46-.11,1.09.17.48-.17,2-.05,1.05-.26.78-.37.57-.57.48-.67.31-2.06-.05-1-.26-.89-.48-.74-.63-.46L210,40.44l-2.57.2Zm-1.46-2.78.52.11H206l.63-.11.35.17,1.11-.17,2.3.17.94.31.83.41.74.52,1.26,1.26,1.2,2.52-.22,3.56-.35.89-1.06,1.43-.72.57-1.63.83-.94.31h-1.15l-1.11.15-.92,0L206,50.7l-.94-.06-1.26.26a2.42,2.42,0,0,0-.94.26l-.2.31.06.69-.43.83.11,1.06-.05.94.17,1.93-.22,1.69-.26,1-.57.67-.57.05-.37-.26-.52-.74-.11-2.13.05-.22-.2-3,.09-.37-.09-5.39.09-.41V47l-.2-1,.11-.43V42.22l-.11-1,.2-1.46.32-.94.59-.67.93-.31,1.17-.11.52.05Zm-18.9,2.78-2,.2-.57.57-.17,1,.22,1.94-.22,2,.31,1.15.63.48,1,.2,1.46-.11,1.09.17.48-.17,2-.05,1.06-.26.78-.37.57-.57.48-.67.32-2.06-.06-1-.26-.89-.48-.74-.63-.46-1.35-.43-2.57.2Zm-1.46-2.78.52.11h1.68l.63-.11.35.17,1.11-.17,2.3.17.94.31.83.41.74.52,1.26,1.26,1.2,2.52-.22,3.56-.35.89-1.05,1.43-.72.57-1.63.83-.94.31H189l-1.11.15-.93,0-1.32.15-.94-.06-1.26.26a2.43,2.43,0,0,0-.95.26l-.2.31.05.69-.43.83L182,54,182,55l.17,1.93-.22,1.69-.26,1-.57.67-.57.05-.37-.26-.52-.74-.11-2.13.06-.22-.2-3,.09-.37-.09-5.39.09-.41V47l-.2-1,.11-.43V42.22l-.11-1,.2-1.46.31-.94.59-.67.93-.31,1.17-.11.52.05Zm-16.68,4.56-.35.46-1.89,7.13.15.37.63.15h3l.57-.2.11-.69-.05-.72-.2-.63-.11-.68-.78-3.15-.48-1.15-.09-.69a2.29,2.29,0,0,0-.54-.2m-.2-3.81,1.31.2.52.26.37.31.69.83.94,2.06.26,2,.2.52.26,1.2.48,1v.57l.35,1.72.43,1.06L174,56l.15,1.2.37,1.15.17,1.2-.06.52.09.46-.41.69-.48.31-.41.05-.63-.37-.43-.37-.52-.93-.43-1.83-1.35-3.83-.8-.69-3.3-.3-1.41,0-.52.22-.43.31-.31.41-.32,1.2-.32.43-.52,2.46-.26.46-.11.63-.63.83-.17.63-.35.37-.63.05-.48-.26-.35-.37-.22-.52-.09-.69.89-2.83,0-.57.31-1.15.17-1.37,2.09-6.8.11-.63.41-1.09.74-2.94L164,41l1-1.94.43-.31Zm-26.66.83.67.15.48.48.57,2.3.11,1.46-.17,1.89L141.7,47l.26.89.57.37.74.2h6l1-.15.63-.31.37-.52.2-.74-.15-.63.2-1.3-.15-1.2v-1.8l.32-1.52.35-.57.37-.15.43.05.57.35.37.59.32,1.83v1.41l-.22,1.57.11.83-.11,6,.11.8-.26,3.39.2,2.2-.32,1.72-.37.63-.63.32L152,61l-.35-.57-.22-.78-.09-3.35.09-1.52-.2-1.89-.2-.74-.37-.57-.63-.31-.83-.09-5.91.09-.68.26-.57.37-.22.69-.2,5.24-.2,1.3.09.22v.78l-.26.83-.46.48-.52.15L139.5,61l-.31-.63L139,59.6l-.28-5.81.11-.83-.11-.8.11-1.31-.11-2.24.17-2.2-.2-3,.31-3.18.32-.69Zm-34.2-.83,2.67,0,1.2.22,1.89-.22,3.55.28.68.2.63.37.32.57-.11.72L116,41l-1.46.26-4.41-.06-.78.17-.22-.06-2.18.11-.57.31-.43.57-.2.67-.17,1.63.11.63-.11.15.11,1.52.26.69.46.43,2.05.46h2l.83.11.8-.11.83.11.63.31.41.46a1.58,1.58,0,0,1,.22.74l-.43.57-.63.26-.78-.06-.83.11-4.41.15-.68.22-.32.63-.41,2.35-.05,2.52.26,1.46.46.41,1.43.37,1-.15.54.09,1.78.11,1.46-.11,2.61.26.68.43.2.74-.31.63-.67.26-6.65.41-1.83-.2-1.11.06-1.3-.26-.63-.37-.43-.48-.26-.67-.06-5-.11-.78.32-1.46L103,51.9l.26-2.35-.2-2.52.35-1.46,0-.89.2-1L103.41,40l.37-.72.54-.43.72-.15Zm-21.52.26.89.32.52.72.32.89L86,41.7l-.2,1-.05,6.55L86,50.81l-.43,4.07.37,2.72a1.76,1.76,0,0,0,.43.74l.89.31,6,.2,1.57.2a2,2,0,0,1,.83.43l.26.89-.57.68-.89.26-1.05.15-4.24.26-1-.09-.52,0-1.74-.09L84,61.07l-.59-.63-.41-.8L82.9,54.2l.17-1-.17-5,.11-.67-.11-.85.17-1.24-.22-3.15.05-2.46.52-.69ZM66.81,40.44l-2,.2-.57.57-.17,1,.22,1.94-.22,2,.31,1.15.63.48,1,.2,1.46-.11,1.09.17.48-.17,2-.05,1.06-.26.78-.37.57-.57.48-.67.32-2.06-.06-1-.26-.89-.48-.74-.63-.46-1.35-.43-2.57.2Zm-1.46-2.78.52.11h1.68l.63-.11.35.17,1.11-.17,2.3.17.94.31.83.41.74.52,1.26,1.26,1.2,2.52-.22,3.56-.35.89-1.05,1.43-.72.57-1.63.83-.94.31H70.84l-1.11.15-.93,0-1.32.15-.94-.06-1.26.26a2.43,2.43,0,0,0-.94.26l-.2.31.05.69-.43.83L63.88,54l-.05.94L64,56.92l-.22,1.69-.26,1-.57.67-.57.05L62,60.07l-.52-.74-.11-2.13.06-.22-.2-3,.09-.37-.09-5.39.09-.41V47l-.2-1,.11-.43V42.22l-.11-1,.2-1.46.31-.94.59-.67.93-.31,1.17-.11.52.05ZM48.18,40.55l-.74.26-1.2.67L44.88,43l-.37.57L43.25,47l-.05.89-.15.8v1.67l.2.74.26,2.56,1,2.78.78,1.09.48.48,1.09.78,1.41.48.89-.06.74-.2,1.2-.68,1-.89,1.72-3,.57-4.15L53.94,47l-.28-.72-.09-.85-1.11-2.67L52,42.27l-.95-.89L50.47,41l-.68-.2h-.41L49,40.64Zm.67-2.72L50,38l1.82.74a2.73,2.73,0,0,1,.91.41l.72.54L54.71,41l.78,1.78.48.8.78,3v.57l.17.57v2.2l-.26,1.67,0,.57-.63,3.24L55.14,57l-.59.69.05.37-.26.57-.52.78-1.37,1.2-2,1.15-1-.2-1.89.06-1.06-.2L45.55,61,44,60l-1.15-1.41-.46-.78-2-5.72.11-2.13-.15-1.43.15-1.09,1.46-5L43,41l1.3-1.3,1.46-1.06L47.75,38Zm-24.59.57,2.67,0,1.2.22L30,38.44l3.55.28.68.2.63.37.32.57-.11.72-.52.43-1.46.26-4.41-.06-.78.17-.22-.06-2.18.11-.57.31-.43.57-.2.67-.17,1.63.11.63-.11.15.11,1.52.26.69L25,48l2.06.46h2l.83.11.8-.11.83.11.63.31.41.46a1.58,1.58,0,0,1,.22.74l-.43.57-.63.26L31,50.9l-.83.11-4.41.15-.68.22-.32.63-.41,2.35-.05,2.52.26,1.46.46.41,1.43.37,1-.15.54.09,1.78.11,1.46-.11,2.61.26.68.43.2.74-.32.63-.67.26-6.65.41-1.83-.2-1.11.06-1.3-.26L22.22,61l-.43-.48-.26-.67-.06-5L21.37,54l.32-1.46-.15-.69.26-2.35L21.59,47l.35-1.46,0-.89.2-1L21.94,40l.37-.72.54-.43.72-.15Zm-18.55,2-2,.2-.57.57-.17,1,.22,1.94-.22,2,.32,1.15.63.48,1,.2,1.46-.11,1.09.17.48-.17,2-.05L11,47.6l.78-.37.57-.57.48-.67.31-2.06-.05-1-.26-.89-.48-.74-.63-.46-1.35-.43-2.57.2ZM4.24,37.66l.52.11H6.44l.63-.11.35.17,1.11-.17,2.3.17.94.31.83.41.74.52,1.26,1.26,1.2,2.52-.22,3.56-.35.89-1.06,1.43-.72.57-1.63.83-.95.31H9.74l-1.11.15-.92,0-1.32.15-.94-.06-1.26.26a2.42,2.42,0,0,0-.94.26l-.2.31.06.69L2.67,53,2.78,54,2.72,55l.17,1.93L2.67,58.6l-.26,1-.57.67-.57.05-.37-.26-.52-.74L.26,57.2.32,57l-.2-3,.09-.37L.11,48.18l.09-.41V47L0,46l.11-.43V42.22l-.11-1,.2-1.46.32-.94.59-.67L2,37.83l1.17-.11.52.05Z"/><path class="cls-1" d="M168.68,0l1.11.11.57-.11,2.13.63,2.05,1.46.52.63.63.52.46.69.32.83.17,1-.37.83L175.5,7l-.74-.41-.52-.63-.94-1.43L172.72,4l-.8-.37-1.87-.46-1.11-.05-1,.11-1.63.72L165.13,5l-.46.67-.37.8-.57,1.72-.26,3.15.09,1-.09,1.11.09,2,.2,1,.05.78.37,1,.48.69,1.09,1.2,1.52.78.89.26,1.52.11,1.41-.31.8-.37.57-.63.67-.43,1-1.3.26-.94.06-.63-.32-1.31-.63-.46-3.87-.63-.83-.37-.26-.78a1.66,1.66,0,0,1,.52-.63l.83-.37,5.33-.06.85.31.63.52.35.8.11,2.61-.52,2.26-.37.78-.89,1.43L174.24,22l-1.31,1-.72.43-2.78.67-2-.2-2.46-1-1.41-.89-.57-.57-1.52-2-.78-3.81-.22-2.63.28-2.09-.06-2,.67-3.41.31-.89L163.81,2l.63-.52L166.76.37A10.89,10.89,0,0,0,168.68,0M142.74.57l.74.37,3,4.44.32.8.78,1.3.32.74,4,6.76.52.52.57-.37V13.2l.17-.8.09-2-.15-2,.2-.85-.15-1.78.15-1.09V2.83l.17-1.15.46-.57.32-.17.57.05a1.19,1.19,0,0,1,.57.52l.26.8L156,5.07l-.05,2.11-.2.89-.11,2.82.17.89-.2,3.2.09.94.05,4.76-.46,1.89-.74.31-.72-.37-.63-.48-.54-.52-.32-.72-2-3.31-.26-.83-.89-1.26-.32-.72-2.2-3.15-.32-.78-.72-1.37-.63-.46a.92.92,0,0,0-.69-.26l-.2.83-.11,1.83.06.15-.15.89v1.05l-.17.94-.06,2.93-.09.94.2.89v.83l-.17,1.15-.26.85-.41.63-.32.2-.54-.06-.52-.52-.31-.74-.15-2,.15-.89.11-3L141,11.15l.15-1.15L141,6l.15-1.15-.26-1.63.11-.09.43-1.72L142,.83Zm-15,.32.72.17.8.94.26,1.46-.26,9.11.09.78.22.63-.17.69.11.78-.2,1.11,0,.15-.09,1.06.15,1.3-.09,3-.32.8-.43.41-.78-.09-.54-.31-.32-.57-.15-.69-.17-3,.06-3.72.22-1.46-.37-6.17.09-1.83V3.09l.22-1.35.32-.59ZM113.54.74l.68.32.37.68.05.41-.11.43-.37.63-.94,1-1.09.89-4.33,4.5-.11.68.32.89,1.83,3.09,1.78,2.2.37.63,3,3.93.41,1-.09.43a1.11,1.11,0,0,1-.54.46l-.41.06-.43-.15-.57-.37-.95-1.11-.37-.57-1.87-2L109,17l-.48-.52-.37-.63-.94-1.05-.32-.67-.46-.48-.57-.41-.78-.28-.74.22-.57.41-.43.54-.32.67-.35,7.59-.48.54-.37.15-.41-.06-.57-.41-.37-.63-.2-3.57,0-.89-.09-.89v-6l-.11-.43L100,6.59l.17-1.3V2.78l.37-1.15.72-.69.57.05.63.37.37.63.26,2.72-.11.67.11.89-.11.85.32.89a.65.65,0,0,0,.43.57h.72L105,8l1.15-.83,1-1,.57-.37,1.52-1.46.41-.57,1.63-1.31.94-1,.57-.43ZM87.36,4.3,87,4.76l-1.89,7.13.15.37.63.15h3l.57-.2.11-.69-.05-.72-.2-.63-.11-.69-.78-3.15L88,5.19,87.9,4.5a2.29,2.29,0,0,0-.54-.2M87.16.48l1.31.2L89,.95l.37.31.68.83L91,4.15l.26,2,.2.52.26,1.2.48,1v.57l.35,1.72L93,12.2l1.57,5.87.15,1.2.37,1.15.17,1.2-.06.52.09.46-.41.68-.48.32-.41.05-.63-.37-.43-.37L92.4,22,92,20.17l-1.35-3.83-.8-.69-3.3-.3-1.41,0-.52.22-.42.31-.32.41-.32,1.2-.32.43-.52,2.46-.26.46-.11.63-.63.83-.17.63-.35.37-.63.06-.48-.26-.35-.37-.22-.52-.09-.69.89-2.83,0-.57L80.66,17l.17-1.37,2.09-6.8L83,8.22l.41-1.09.74-2.94.42-1.09,1-1.95.43-.31ZM60.66.31l1.05.17.63.57.41.72,1.46,4.35.43.78L66,11.41l.35.85a1.23,1.23,0,0,0,.74.37l.57-.59.32-.89.78-1.52L69,8.68l.8-1.55,1.46-4.41.37-.78a1.65,1.65,0,0,1,.37-.8l.78-.41L73.9.69l.8.43.41.72.11.52-.06.54.11.46-.17.74L74.9,15.7l.2.94v4.09l-.26,1.15-.41.72-.54.17-.35-.17L73,22l-.26-.94.11-1.52-.17-1.74-.15-.41.2-3.72-.15-1,0-1.17-.26-.78.11-.48-.15-.78-.48.31-.42.74-2.3,5.91-1,1.32-.89.26h-.85l-.83-.63L65,16.7l-1.78-5.13-.83-1.52a.49.49,0,0,0-.48.52l-.26.94V14.3l-.2,1.26,0,.46-.26,1.11.11,3.67-.2.93-.54.63-.35.26-.48-.09-.52-.69-.2-1L58.88,19l.11-.17-.11-1.09.06-.48-.11-.52.17-.57-.2-2.78.09-5-.15-.89-.05-1.57L59,2.2l.35-.78.54-.69Z"/></svg>