<svg id="Layer_1" data-name="Layer 1" xmlns="http://www.w3.org/2000/svg" viewBox="0 0 178.56 99.74"><defs><style>.cls-1{fill:#808285;}</style></defs><title>browse-out-shop</title><path class="cls-1" d="M158.49,44.66h3.87c4.59,0,6.66,2.43,6.66,7.74v3.78c0,5.31-2.07,7.74-6.66,7.74h-3.87Zm-9.54-8.82v63h9.54V72.74h4.23c10.26,0,15.84-5.58,15.84-15.93v-5c0-10.35-5.58-15.93-15.84-15.93ZM113,43.76c3.78,0,5.85,2.52,5.85,7.2V83.72c0,4.68-2.07,7.2-5.85,7.2s-5.85-2.52-5.85-7.2V51c0-4.68,2.07-7.2,5.85-7.2m0-8.82c-9.54,0-15.39,6-15.39,15.93V83.81c0,9.9,5.85,15.93,15.39,15.93s15.39-6,15.39-15.93V50.87c0-9.9-5.85-15.93-15.39-15.93M77.13,98.84v-63H67.59V62.39H56.25V35.84H46.71v63h9.54V71.39H67.59V98.84ZM14.67,34.94C5.85,34.94.45,39.8.45,49.07V50.6c0,6.84,2.88,12,11.34,19.8,6.21,5.67,8,8.55,8,12.51v2c0,4.5-2.34,6-5.22,6-3.42,0-5.4-2.07-5.4-6.3V80.3L0,81.2v4.14c0,9.27,5.94,14.4,14.76,14.4s14.58-4.86,14.58-14.13V82.55c0-7.29-2.88-12.42-11.34-20.25-6.21-5.67-8-8.55-8-12.06V48.89c0-3.6,2-5.13,4.77-5.13,3.33,0,5,2,5,6.3v2l9.18-.9v-1.8c0-9.27-5.4-14.4-14.22-14.4"/><path class="cls-1" d="M157,2.36l-.75.21-.53.37-.38.54L155.1,6l.09,1.63.29.66.5.41h1.73l.84.13h1.61l.75-.21,1.16-.67.41-.53L163,5.79l-.16-1.32-.34-.59L161.6,3,161,2.68l-1.9-.32-.43.07Zm.79-1.9,3,.28,1.49.43,1.16.82.88,1,.41.86L165,5.42l-.13,1.36-.28,1-.42.86-1.52,1.7-.25.38,0,.57.54,1.41,2,3.24.54,1.36,0,.45-.34.5-.53.13-.84-.45-.32-.34-.54-.75-.91-1.66-.34-.34-1.9-3.27-.34-.29-.45-.21-1-.25-.59,0-1.11.18-.91.37-.22,1.08,0,.61.07.54v3.65l-.2.45-.29.32-.5.21-.45-.16-.37-.29-.29-1-.21-2.23.09-.7.16-.5,0-.59-.2-1.11.12-1.16-.09-1.86.22-2.2L153,5.79,153,4l.16-1.79.38-.91.32-.37.38-.25,1.11-.18,1.91,0a2.52,2.52,0,0,0,.54-.07M138.21.91l.54.25.25.5.34,1.77-.09.83.12,1-.28,2.15.21,2.07-.13,3.35.13,1.36.29,1.16,1.11,1.13.45.28.62.13.54.21.7,0,1.24-.25,1.07-.41,1-1.25.25-1.2.2-5.14-.12-2.31.21-2.86V2.31l.12-.59.29-.45.41-.12.54.41.34.45.16,2.4-.25,2.4.12,4-.21,1.08.13,1.7,0,1L148.11,16l-.25.5-.66.86-.79.7-1,.54-.54.21L143.6,19,142.31,19l-.7-.16-.34,0-.82-.29L139,17.8l-.45-.32-.54-1-.7-2.15.21-2.9-.21-1,.09-1.16L137.21,5l.13-.63V2.43l.21-.7.25-.5Zm-11.7,1.24-.59.21-1,.53L123.9,4.06l-.29.45-1,2.72,0,.7-.12.63V9.89l.16.59.21,2,.79,2.2.61.86.38.38.86.61,1.11.38.7,0,.59-.16,1-.54.79-.7L131,13.13l.45-3.28-.37-2.56-.22-.57L130.77,6l-.88-2.11-.32-.41-.75-.7-.5-.29-.54-.16h-.32l-.34-.13ZM127,0l.92.12,1.44.59a2.15,2.15,0,0,1,.72.32l.57.43,1,1,.61,1.41.38.63.62,2.4v.45l.13.45V9.57l-.21,1.32,0,.45-.5,2.56L132,15.19l-.47.54,0,.29-.21.45-.41.61-1.08,1-1.61.91-.82-.16-1.49,0-.84-.16-.7-.34-1.2-.83-.91-1.11-.37-.61-1.58-4.53.09-1.68-.12-1.13.12-.87,1.16-3.94.84-1.16,1-1,1.16-.84,1.54-.5ZM94.69.45l2.11,0,1,.18L99.24.48l2.81.22.54.16.5.29.25.45-.09.57-.41.34-1.16.21-3.49,0-.61.13-.18,0-1.73.09-.45.25-.34.45-.16.53L94.6,5.38l.09.5L94.6,6l.09,1.2.21.54.37.34,1.63.37H98.5l.66.09.63-.09.66.09.5.25.32.37a1.26,1.26,0,0,1,.18.59l-.34.45-.5.21-.62,0-.66.09-3.49.12-.54.18-.25.5-.32,1.86,0,2,.21,1.16.37.32,1.13.29.82-.12.42.07,1.41.09,1.16-.09,2.07.21.54.34.16.59-.25.5-.53.2L96.93,19l-1.45-.16-.88,0-1-.21-.5-.29L92.74,18l-.21-.53,0-4-.09-.62.25-1.16-.12-.54.21-1.86-.16-2,.28-1.16,0-.7L93,4.63l-.13-2.95.29-.57.42-.34.57-.12Zm-13-.21L84.2.86l1,.59.78.78.5,1,.13.54-.34.57-.37.13-.75-.34-.83-.75-1-.62-1.16-.38h-.57l-.13.09-.66,0-.5.25L79.23,4.06,79,4.59V5.87L79.4,7l.29.45,1,.63.57.21.63.12,2.27.88,1.7,1.41.34.45.45,1.11.29.5.16,1.29-.16.75L86.47,16l-.61.91-1.11,1.24-.5.29-1.83.48L81.09,19l-1.36-.32-.59-.25-1-.59-1.57-1.57-.18-.63a1,1,0,0,1,.21-.57l.42-.34.32,0,.34.13.45.28,1.11,1.25.45.34.54.25,1.33.12,1.36-.2.54-.21L84,16.3l.78-.78L85,15l.16-1.41-.38-1.16-.28-.5-.42-.38-.91-.61L78.74,9.1l-.45-.37-.67-.86-.23-.54-.47-1.9L77,4.18,77.4,3l.7-.86L79.94.82ZM60.16,1.32l.61.25.67,1.9L62.36,10l.21.66.29.16.2-.12.32-.54.22-.62,0-.58.29-.79.13-.75.21-.61L65.05,5l.48-.37.54-.12.41.62L67.66,9.1l.5,1.2.46.38a1.57,1.57,0,0,0,.41-.41l.21-.63.29-2.11,0-.12.91-5,.29-.59L71,1.68l.37,0,.34.54,0,.62-.86,6.63.09.57-1,7.66-.21.63-.54.32-.45,0-.25-.12-.37-.5-.29-.54-.13-.7-1.25-4.72-.23-.25.12-.63L66.26,11l-.34-.5-.38-.09-.21.16-.28.59-.25,1.08.12.23-.29.54-1,4.1-.45,1.24-.5.37-.57.09-.63-.41-.28-.59-.09-.57.09-.47-.09-.32v-.7l-.5-4.64L60.16,9l0-.79-.29-1.41,0-.62-.41-2.24.07-.79,0-.73.22-.63a2.38,2.38,0,0,1,.37-.45m-11,.83-.59.21-1,.53L46.55,4.06l-.29.45-1,2.72,0,.7-.12.63V9.89l.16.59.21,2,.79,2.2.62.86.38.38.86.61,1.11.38.7,0,.59-.16,1-.54.79-.7,1.36-2.36.45-3.28-.37-2.56-.22-.57L53.42,6l-.88-2.11-.32-.41-.75-.7L51,2.52l-.54-.16h-.32l-.34-.13ZM49.69,0l.92.12L52,.7a2.15,2.15,0,0,1,.72.32l.57.43,1,1,.61,1.41.38.63.62,2.4v.45l.13.45V9.57l-.2,1.32,0,.45-.5,2.56-.73,1.29-.47.54,0,.29-.21.45-.41.61-1.08,1L50.93,19l-.82-.16-1.49,0-.83-.16-.7-.34-1.2-.83L45,16.39l-.37-.61L43,11.25l.09-1.68L43,8.44l.12-.87,1.16-3.94.84-1.16,1-1L47.29.61l1.54-.5ZM31.32,2.36l-.75.21L30,2.93l-.38.54L29.41,6l.09,1.63.29.66.5.41H32l.84.13h1.61l.75-.21,1.16-.67.41-.53.54-1.63-.16-1.32-.34-.59L35.92,3l-.61-.29-1.9-.32L33,2.43Zm.79-1.9,3,.28,1.49.43L37.73,2l.88,1,.41.86.25,1.54-.13,1.36-.28,1-.42.86-1.52,1.7-.25.38,0,.57.54,1.41,2,3.24.54,1.36,0,.45-.34.5-.53.13L38,17.93l-.32-.34-.54-.75-.91-1.66-.34-.34L34,11.59l-.34-.29-.45-.21-1-.25-.59,0L30.5,11l-.91.37-.22,1.08,0,.61.07.54v3.65l-.2.45-.29.32-.5.21L28,18l-.37-.29-.29-1-.21-2.23.09-.7.16-.5,0-.59-.21-1.11.12-1.16-.09-1.86.22-2.2-.09-.63L27.3,4l.16-1.79.38-.91.32-.37.38-.25L29.66.48l1.9,0a2.51,2.51,0,0,0,.54-.07M14.25,10.68l-.53.41-.22.75-.12,2.7.12.82,0,.75.32.5.66.29.42,0,1-.13,1.41.25.32-.07.83.07,1-.25,1.11-.75.41-.53.29-.7.29-1.2-.13-.29-.07-.7-.79-1.13L20,11.09l-.66-.29-1.57-.32Zm2.2-7.87-2.11.32-.45.38-.21.62-.18,2.7.25.91.45.34,2.15.25,1.54-.13.59.09.7-.21.53-.25.42-.41.62-1,.09-.66L20.76,5l-.54-1.13-.41-.41-.54-.29L18,2.81ZM18.24.61,19.47,1l1.42.7.62.45.21.29.34.23.12.38.75,1.36.13.88L23,5.71l0,1L22.12,9.1l0,.47.12.41,1.24,1.95.12.37.18,1.49-.18,1.29-.12.41-.75,1.36-.5.59-1.82,1.32L19.26,19,19,19,17.65,19l-.41.09L14,19.21l-.53-.13-.45.09-.47-.09-.73-.28-.54-.54-.21-.32-.13-.43,0-.5L11,15.56l-.09-2.31.13-.54-.21-6.62.07-.45V3.27l-.07-.34L11.4,1.2,11.64,1,12,.73l.45-.07Z"/></svg>