<svg id="Layer_1" data-name="Layer 1" xmlns="http://www.w3.org/2000/svg" viewBox="0 0 298.43 110.98"><defs><style>.cls-1{fill:#fff;}</style></defs><title>team</title><path class="cls-1" d="M293,72.3C284.4,87,274.41,99.48,268,99.48c-2,0-5.69-1.26.38-16.18l7.71-19c2.53-6.19,4.17-11.38,4.17-15.42,0-6.7-4.68-9.86-10.24-9.86-5.06,0-12.39,2.66-19.85,10.37.25-6.83-4.3-10.37-9.86-10.37-4.93,0-11.12,2.28-17.57,8.22l2.66-6.57H212.1l-26.42,65.6H199l19-47c5.56-6.19,11.63-9.23,15-9.23,2,0,3.54,1,3.54,2.78,0,2-2.15,7.21-4.42,12.89-.76,1.77-16.43,40.57-16.43,40.57h13.27l19.09-47c5.43-6.19,11.63-9.23,15-9.23,2,0,3.54,1,3.54,2.78,0,2-2.15,7.21-4.42,12.89l-5.06,12.51c-9.1,22.63-2.91,29.7,7.33,29.7,12.64,0,23.89-14.16,34-31.73A7,7,0,0,0,293,72.3M146.12,96.95c-2.78,0-4.17-1.64-4.17-5.18,0-10,11.12-41.46,23-41.46,6.32,0,6.19,9.1,6.19,9.1L160.65,85.32s-7.08,11.63-14.54,11.63M199.46,72.3c-8.59,14.66-18.58,27.18-24.9,27.18-3.29,0-4.93-3.29.25-16.18L192,40.7H178.73l-3.54,8.59s-1.9-10.24-12.51-10.24c-21.49,0-33.37,41.21-33.37,54.73,0,8,4,14.16,12.13,14.16,10.24,0,17.82-10.11,17.82-10.11s0,10.11,11.5,10.11c13,0,24.4-14.79,34.13-31.73a7,7,0,0,0-5.43-3.92M111.61,49.93c4.42,0,4.93,3.67,1.14,11.76-3.29,7.08-8.09,13.65-20.22,11.5,0,0,8.09-23.26,19.09-23.26M133.86,72.3C124.38,88.35,111.23,99.48,99,99.48c-16.05,0-8.72-19.09-8.72-19.09,16.18,1.77,27-1.52,33.62-15.29,7.33-15.17,1-26-11.38-26-21.24,0-36.15,31.6-36.15,49.8,0,12.51,7,19.09,19.72,19.09,20.22,0,34.51-16.56,43.23-31.73a7,7,0,0,0-5.43-3.92m-6.19-60.55L120.84,8s-4.17,3.67-15,3.67C85.07,11.63,53,0,34,0,14.54,0,6.83,12.13,6.83,23c0,12,9.35,20.73,21,20.73A20.8,20.8,0,0,0,43,37.54L37.41,29.2s-4,4.17-9.73,4.17A9.75,9.75,0,0,1,17.57,23.26C17.57,17.82,21,11,33.5,11c9.61,0,25.79,4.17,41.71,7.46l-21.74,54C47.4,89,39.44,100,26.67,100,16.05,100,11,92.27,11,85.45c0-7.08,5.18-15.8,16.31-14.92V59.41A25.69,25.69,0,0,0,0,85.07C0,98.47,10,111,26.8,111c11,0,26.67-5.44,36-29.45L87.47,20.86a135.7,135.7,0,0,0,19,1.77c20,0,21.24-10.87,21.24-10.87"/></svg>