<svg id="Layer_1" data-name="Layer 1" xmlns="http://www.w3.org/2000/svg" viewBox="0 0 126.25 126.57"><defs><style>.cls-1{fill:#636a6a;}</style></defs><title>Untitled-89</title><path class="cls-1" d="M118.66,23.78c0,6.64-8.49,16.88-20.17,25a67.58,67.58,0,0,1-8.72,13.89c19.77-9.34,36.47-26.67,36.47-38.93,0-9.86-5-13.56-17.94-15q-.26,3.83-.72,7.53a44.57,44.57,0,0,1,5.3.81c5.25,1.21,5.77,2.85,5.77,6.6"/><path class="cls-1" d="M36.16,62.34A68.43,68.43,0,0,1,27.6,48.49c-11.61-8.11-20-18.17-20-24.71,0-4.22.57-6.37,11.07-7.39q-.47-3.73-.73-7.59a51.39,51.39,0,0,0-6.32,1C3.47,11.66,0,15.85,0,23.78c0,12.1,16.47,29.14,36.16,38.56"/><path class="cls-1" d="M55.34,84.57H70.92c.83-10.94,6.78-15.89,14.37-28.31C94.43,44.12,100.51,24.68,101,2.59A2.53,2.53,0,0,0,98.48,0H27.77a2.53,2.53,0,0,0-2.53,2.59c.5,22.13,6.6,41.59,15.76,53.73,7.57,12.38,13.5,17.34,14.34,28.25"/><path class="cls-1" d="M20,117.82V104.68H1c-.69,0-.86.4-.36.89L10,114.73a1.25,1.25,0,0,1,0,1.77L.65,125.68c-.5.49-.33.89.36.89H35.12a1.27,1.27,0,0,0,1.26-1.26v-6.21H21.31A1.27,1.27,0,0,1,20,117.82"/><path class="cls-1" d="M125.36,105.58c.49-.5.32-.9-.38-.9H106.2v13.15a1.27,1.27,0,0,1-1.26,1.26H89.87v6.21a1.27,1.27,0,0,0,1.26,1.26H125c.69,0,.87-.4.38-.9l-9-9.14a1.29,1.29,0,0,1,0-1.8Z"/><rect class="cls-1" x="25.34" y="92.02" width="75.57" height="21.89" rx="1.26" ry="1.26"/></svg>
