<svg id="Layer_1" data-name="Layer 1" xmlns="http://www.w3.org/2000/svg" viewBox="0 0 18.34 15.57"><defs><style>.cls-1{fill:#fff;}</style></defs><title>bag</title><path class="cls-1" d="M14.5,5.08,11.81.42A.84.84,0,0,0,10.66.11l-.23.13a.85.85,0,0,0-.31,1.15l2.69,4.66A.84.84,0,0,0,14,6.37l.09-.05,0,0,.1-.06a.85.85,0,0,0,.31-1.15"/><path class="cls-1" d="M7.91.25,7.68.11A.84.84,0,0,0,6.53.42L3.83,5.08a.85.85,0,0,0,.31,1.15l.11.07h0l.09.05a.84.84,0,0,0,1.15-.31L8.22,1.4A.84.84,0,0,0,7.91.25"/><path class="cls-1" d="M13.4,13.77H11.82V8h2.56Zm-3,0H8V8h2.36Zm-3.84,0H4.94L4,8H6.51ZM17.2,5.29H15.15a1.54,1.54,0,0,1-.76,1.51l0,0a1.54,1.54,0,0,1-2.1-.56l-.56-1h-5l-.56,1A1.54,1.54,0,0,1,4,6.82l0,0a1.54,1.54,0,0,1-.76-1.51H1.13a1.13,1.13,0,0,0-.06,2.26l1.62,6.88a1.47,1.47,0,0,0,1.43,1.14H14.21a1.47,1.47,0,0,0,1.43-1.14l1.62-6.88a1.13,1.13,0,0,0-.06-2.26"/><path class="cls-1" d="M14.5,5.08,11.81.42A.84.84,0,0,0,10.66.11l-.23.13a.85.85,0,0,0-.31,1.15l2.69,4.66A.84.84,0,0,0,14,6.37l.09-.05,0,0,.1-.06a.85.85,0,0,0,.31-1.15"/><path class="cls-1" d="M7.91.25,7.68.11A.84.84,0,0,0,6.53.42L3.83,5.08a.85.85,0,0,0,.31,1.15l.11.07h0l.09.05a.84.84,0,0,0,1.15-.31L8.22,1.4A.84.84,0,0,0,7.91.25"/><path class="cls-1" d="M13.4,13.77H11.82V8h2.56Zm-3,0H8V8h2.36Zm-3.84,0H4.94L4,8H6.51ZM17.2,5.29H15.15a1.54,1.54,0,0,1-.76,1.51l0,0a1.54,1.54,0,0,1-2.1-.56l-.56-1h-5l-.56,1A1.54,1.54,0,0,1,4,6.82l0,0a1.54,1.54,0,0,1-.76-1.51H1.13a1.13,1.13,0,0,0-.06,2.26l1.62,6.88a1.47,1.47,0,0,0,1.43,1.14H14.21a1.47,1.47,0,0,0,1.43-1.14l1.62-6.88a1.13,1.13,0,0,0-.06-2.26"/><path class="cls-1" d="M14.5,5.08,11.81.42A.84.84,0,0,0,10.66.11l-.23.13a.85.85,0,0,0-.31,1.15l2.69,4.66A.84.84,0,0,0,14,6.37l.09-.05,0,0,.1-.06a.85.85,0,0,0,.31-1.15"/><path class="cls-1" d="M7.91.25,7.68.11A.84.84,0,0,0,6.53.42L3.83,5.08a.85.85,0,0,0,.31,1.15l.11.07h0l.09.05a.84.84,0,0,0,1.15-.31L8.22,1.4A.84.84,0,0,0,7.91.25"/><path class="cls-1" d="M13.4,13.77H11.82V8h2.56Zm-3,0H8V8h2.36Zm-3.84,0H4.94L4,8H6.51ZM17.2,5.29H15.15a1.54,1.54,0,0,1-.76,1.51l0,0a1.54,1.54,0,0,1-2.1-.56l-.56-1h-5l-.56,1A1.54,1.54,0,0,1,4,6.82l0,0a1.54,1.54,0,0,1-.76-1.51H1.13a1.13,1.13,0,0,0-.06,2.26l1.62,6.88a1.47,1.47,0,0,0,1.43,1.14H14.21a1.47,1.47,0,0,0,1.43-1.14l1.62-6.88a1.13,1.13,0,0,0-.06-2.26"/></svg>