<svg xmlns="http://www.w3.org/2000/svg" xmlns:xlink="http://www.w3.org/1999/xlink" viewBox="0 0 64.92 97.33"><defs><style>.cls-1{fill:none;}.cls-2{isolation:isolate;}.cls-3{mix-blend-mode:multiply;}.cls-4{clip-path:url(#clip-path);}.cls-5{fill:#5f6661;}</style><clipPath id="clip-path"><rect id="SVGID" class="cls-1" width="64.92" height="97.33"/></clipPath></defs><title>chairr</title><g class="cls-2"><g id="Layer_1" data-name="Layer 1"><g class="cls-3"><g class="cls-4"><path class="cls-5" d="M56.44,55.83a3.57,3.57,0,0,1,1.43,2.65c0,4.79-10,5.73-13.63,5.42-5.78,3.77-17.6,3.77-23.38,0-3.66.31-13.63-.63-13.63-5.42A3.47,3.47,0,0,1,8.51,56s-.69-5.24-.7-5.33a83.23,83.23,0,0,0-2.55-10.7c-1-2.8-3.79-3.07-3.92-4.07L1,33.28a.82.82,0,0,1,.82-.95,90.6,90.6,0,0,1,12.65.84C11,19.9,13.91,9.46,24.58,4.78,25,2.66,28.36,1,32.44,1s7.45,1.66,7.86,3.78C51,9.46,53.85,19.9,50.4,33.18a90.9,90.9,0,0,1,12.68-.84.81.81,0,0,1,.82.95l-.34,2.57c-.13,1-2.88,1.27-3.92,4.07a82.75,82.75,0,0,0-2.55,10.7c0,.35-.58,4.92-.66,5.21m-40.8,10a49.25,49.25,0,0,0,.54,12.66c.19,1.06.35,1.95.46,2.74a16.78,16.78,0,0,1-1,9.7l-2.32,5.41H9.78c.72-1.86,1.37-3.47,2-5.19,2.1-5.43,1.72-6,.22-11.71-1.61-6.1-3.32-10.94-2.9-15.62a17.52,17.52,0,0,0,6.5,2m33.64,0a49.22,49.22,0,0,1-.55,12.64c-.19,1.06-.35,1.95-.46,2.74a16.77,16.77,0,0,0,1,9.7l2.32,5.41h3.57c-.72-1.86-1.37-3.47-2-5.19-2.1-5.43-1.72-6-.23-11.71,1.6-6.06,3.29-10.88,2.91-15.52a17.91,17.91,0,0,1-6.5,1.94M19.42,46.16a75.56,75.56,0,0,1-4-9.64l-6.21-.79c0,1.83-.78,1.43-.33,3.91.64,3.54,1.25,7.35,1.62,10.93C21,46.14,44,46.22,54.37,50.57c.38-3.59,1-7.38,1.62-10.92.51-2.8-.31-1.9-.34-3.9l-6.24.78a75.66,75.66,0,0,1-4,9.63,103.15,103.15,0,0,0-13-1,103.18,103.18,0,0,0-13,1"/></g></g></g></g></svg>
