<svg id="Layer_1" data-name="Layer 1" xmlns="http://www.w3.org/2000/svg" viewBox="0 0 63.12 45.18"><defs><style>.cls-1{fill:#808183;}</style></defs><title>Untitled-90</title><path class="cls-1" d="M17.36,29.44V23a6.75,6.75,0,0,0-6.73-6.73C6.3,16.3,0,16,0,22.45a6,6,0,0,0,2.87,5C5.23,29,5.79,29.93,5.79,32.73v3.41c0,3.24,2.65,7.41,5.89,7.41h1.46v1.17a.46.46,0,0,0,.46.46h4.52a.46.46,0,0,0,.46-.46V43.55h26v1.17a.46.46,0,0,0,.46.46h4.52a.46.46,0,0,0,.46-.46V43.55h1.46c3.24,0,5.89-4.17,5.89-7.41V32.73c0-2.79.56-3.74,2.92-5.25a6,6,0,0,0,2.87-5c0-6.4-6.3-6.15-10.63-6.15A6.75,6.75,0,0,0,45.76,23v6.41a76.68,76.68,0,0,0-28.4,0M50.59,4.82,52.06,14a9,9,0,0,0-8.58,9v3.7a79.06,79.06,0,0,0-23.83,0V23a9,9,0,0,0-8.58-9l1.46-9.21c1-6.46,37.05-6.39,38.07,0"/></svg>