<svg xmlns="http://www.w3.org/2000/svg" xmlns:xlink="http://www.w3.org/1999/xlink" viewBox="0 0 149.41 54.49"><defs><style>.cls-1{fill:none;}.cls-2{isolation:isolate;}.cls-3{mix-blend-mode:multiply;}.cls-4{clip-path:url(#clip-path);}.cls-5{fill:#808183;}</style><clipPath id="clip-path"><rect id="SVGID" class="cls-1" width="149.41" height="54.49"/></clipPath></defs><title>Untitled-87</title><g class="cls-2"><g id="Layer_1" data-name="Layer 1"><g class="cls-3"><g class="cls-4"><path class="cls-5" d="M128.42,49.12h7.64v4.37h-7.64Zm-115.06,0H21v4.37H13.35ZM133.25,8.06V2.66A1.66,1.66,0,0,0,131.6,1H77.05A1.66,1.66,0,0,0,75.4,2.66v25.6h43.77V21.37A13.34,13.34,0,0,1,132.48,8.06ZM72.1,28.26V2.66A1.66,1.66,0,0,0,70.45,1H15.9a1.66,1.66,0,0,0-1.65,1.65v5.4h2.68A13.34,13.34,0,0,1,30.24,21.37v6.89Zm76.31-16.07V38.41a9.22,9.22,0,0,1-9.19,9.19h-129A9.22,9.22,0,0,1,1,38.41V12.19H16.93a9.21,9.21,0,0,1,9.19,9.19v11H123.3v-11a9.21,9.21,0,0,1,9.19-9.19Z"/></g></g></g></g></svg>