<svg xmlns="http://www.w3.org/2000/svg" xmlns:xlink="http://www.w3.org/1999/xlink" viewBox="0 0 110.55 58.03"><defs><style>.cls-1{fill:none;}.cls-2{isolation:isolate;}.cls-3{mix-blend-mode:multiply;}.cls-4{clip-path:url(#clip-path);}.cls-5{fill:#4c555a;}</style><clipPath id="clip-path"><rect id="SVGID" class="cls-1" width="110.55" height="58.03"/></clipPath></defs><title>coachh</title><g class="cls-2"><g id="Layer_1" data-name="Layer 1"><g class="cls-3"><g class="cls-4"><path class="cls-5" d="M76.5,14.36a2.4,2.4,0,1,1-2.4,2.4,2.4,2.4,0,0,1,2.4-2.4m-21.22,0a2.4,2.4,0,1,1-2.4,2.4,2.4,2.4,0,0,1,2.4-2.4M34,14.36a2.4,2.4,0,1,1-2.4,2.4,2.4,2.4,0,0,1,2.4-2.4M20.64,34.06C38.08,31,72.47,31,89.91,34.06V25.44c0-5.75,4.61-9.09,10-9.09a9.68,9.68,0,0,1,5.61,17.56c0,2.57,0,11.34,0,15.2A7.94,7.94,0,0,1,97.55,57H13a7.94,7.94,0,0,1-7.91-7.91c0-3.86,0-12.63,0-15.2C2.61,32.16,1,30.33,1,26s4.33-9.68,9.68-9.68,10,3.34,10,9.09Zm66.2-3.6v-5a12.15,12.15,0,0,1,8.92-11.68L94.05,6.57C92.29-.86,18.26-.86,16.5,6.57l-1.71,7.19a12.15,12.15,0,0,1,8.92,11.68v5c17.44-2.54,45.69-2.54,63.13,0"/></g></g></g></g></svg>
