<svg xmlns="http://www.w3.org/2000/svg" xmlns:xlink="http://www.w3.org/1999/xlink" viewBox="0 0 94.17 106.22"><defs><style>.cls-1{fill:none;}.cls-2{isolation:isolate;}.cls-3{mix-blend-mode:multiply;}.cls-4{clip-path:url(#clip-path);}.cls-5{fill:#5f5857;}</style><clipPath id="clip-path"><rect id="SVGID" class="cls-1" width="94.17" height="106.22"/></clipPath></defs><title>cup</title><g class="cls-2"><g id="Layer_1" data-name="Layer 1"><g class="cls-3"><g class="cls-4"><path class="cls-5" d="M65.68,92.1c3.74-7.27,6.49-16.94,7.24-28.67,6-2.72,13.15-.09,15.54,4.4,4.71,8.86-4.32,20.34-22.78,24.27m6.94-36.78c-24-.06-47.86-.06-71.87,0-.27,0-.49.13-.49.29-.33,27,9.49,44.8,19.62,50.27.18.09,33.43.09,33.61,0a24.6,24.6,0,0,0,6.76-5.62c17.89-6,32.9-12.22,33.64-26,.32-6-4-14.31-16.16-15.61-1.59-.17-3.09-.65-4.61-.78,0-.75,0-1.51,0-2.27,0-.16-.22-.29-.49-.29"/><path class="cls-5" d="M45.66.26c-1.37,5.11-10,10.3-7,17.91,3.91,9.74,11.1,14.39,3.16,27.44,4.79-5.69,7.37-11.83,6.54-17.45-.47-3.23-2.5-5.71-5.49-11.45S47.34,2.95,45.66.26"/><path class="cls-5" d="M41.12,5c-4,3.8-11.46,17.2-7.93,24.62,4.51,9.5,7.56,12.35,3.09,22.85C41.52,46.2,45.12,37.85,44,32.29c-.67-3.2-2.58-7.19-5.93-12.73S39.33,8.73,41.12,5"/></g></g></g></g></svg>
