<svg id="Layer_1" data-name="Layer 1" xmlns="http://www.w3.org/2000/svg" viewBox="0 0 324.26 224.67"><defs><style>.cls-1{fill:#fff;}</style></defs><title>frame-curves</title><path class="cls-1" d="M296.67,190.66c4.76-6.34,2.36-14.06,1.66-23.74-.78-10.71-.22-23.92,2.76-33.13,2.26-7,6.63-12.64,11-12.7,6.83-.08,13.66,12.44,2.76,13.8-3.69-.9-.32-4.18-1.66-6.63-5.19,1.39-4.77,10,0,11,9.61,2.18,15.13-12.75,7.33-20-4.15-3.88-13.67-2.44-18.37,1.81-7.39,6.68-7.8,21.76-7.17,35.89.36,8.16,2,14.78,2.76,23.74.3,3.42.55,6.32-1.1,9.94"/><path class="cls-1" d="M290.19,149.41c-3.73.76-2.2,14.58-2.36,18.62-.31,7.75,2.72,21,1.88,30.41-1.28,14.37-12,30.65-22.48,20.32-1.69-1.67-.78-2.87-2-5.45-2.48,7.06,7.64,12.83,13.25,11,9.85-3.13,14.9-20.51,14.91-35.89,0-7.12-3.64-31.87-3.16-39"/><path class="cls-1" d="M296.67,34c4.76,6.34,2.36,14.06,1.66,23.75-.78,10.71-.22,23.93,2.76,33.13,2.26,7,6.63,12.65,11,12.7,6.83.08,13.66-12.44,2.76-13.81-3.69.9-.32,4.18-1.66,6.63-5.19-1.4-4.77-10,0-11,9.61-2.18,15.13,12.75,7.33,20-4.15,3.87-13.67,2.44-18.37-1.81-7.39-6.68-7.8-21.76-7.17-35.89.36-8.16,2-14.78,2.76-23.74.3-3.42.55-6.32-1.1-9.94"/><path class="cls-1" d="M290.19,75.26c-3.73-.76-2.2-14.58-2.36-18.61-.31-7.75,2.72-21,1.88-30.41-1.28-14.37-12-30.65-22.48-20.32-1.69,1.67-.78,2.87-2,5.45-2.48-7.06,7.64-12.82,13.25-11,9.85,3.13,14.9,20.52,14.91,35.89,0,7.12-3.64,31.87-3.16,39"/><path class="cls-1" d="M27.59,190.66c-4.76-6.34-2.36-14.06-1.66-23.74.78-10.71.22-23.92-2.76-33.13-2.26-7-6.63-12.64-11-12.7C5.3,121-1.52,133.53,9.37,134.89c3.69-.9.32-4.18,1.66-6.63,5.18,1.39,4.77,10,0,11-9.61,2.18-15.13-12.75-7.33-20,4.15-3.88,13.67-2.44,18.37,1.81,7.39,6.68,7.8,21.76,7.17,35.89-.36,8.16-2,14.78-2.76,23.74-.29,3.42-.55,6.32,1.11,9.94"/><path class="cls-1" d="M34.07,149.41c3.73.76,2.2,14.58,2.36,18.62.3,7.75-2.73,21-1.88,30.41,1.28,14.37,12,30.65,22.48,20.32,1.69-1.67.78-2.87,2-5.45,2.48,7.06-7.63,12.83-13.25,11-9.85-3.13-14.9-20.51-14.91-35.89,0-7.12,3.64-31.87,3.16-39"/><path class="cls-1" d="M27.59,34c-4.76,6.34-2.36,14.06-1.66,23.75.78,10.71.22,23.93-2.76,33.13-2.26,7-6.63,12.65-11,12.7-6.83.08-13.66-12.44-2.76-13.81,3.69.9.32,4.18,1.66,6.63,5.18-1.4,4.77-10,0-11-9.61-2.18-15.13,12.75-7.33,20,4.15,3.87,13.67,2.44,18.37-1.81,7.39-6.68,7.8-21.76,7.17-35.89-.36-8.16-2-14.78-2.76-23.74-.29-3.42-.55-6.32,1.11-9.94"/><path class="cls-1" d="M34.07,75.26c3.73-.76,2.2-14.58,2.36-18.61.3-7.75-2.73-21-1.88-30.41C35.83,11.87,46.58-4.41,57,5.92c1.69,1.67.78,2.87,2,5.45,2.48-7.06-7.63-12.82-13.25-11C36,3.46,30.92,20.85,30.91,36.22c0,7.12,3.64,31.87,3.16,39"/></svg>