<svg id="Layer_1" data-name="Layer 1" xmlns="http://www.w3.org/2000/svg" xmlns:xlink="http://www.w3.org/1999/xlink" viewBox="0 0 343.59 269.98"><defs><linearGradient id="linear-gradient" x1="183.13" y1="-224.99" x2="183.13" y2="47.01" gradientTransform="translate(0 223.99)" gradientUnits="userSpaceOnUse"><stop offset="0" stop-color="#59595b"/><stop offset="1" stop-color="#fff"/></linearGradient><linearGradient id="linear-gradient-2" x1="170.58" y1="-224.99" x2="170.58" y2="47.01" xlink:href="#linear-gradient"/><linearGradient id="linear-gradient-3" x1="168.4" y1="-224.99" x2="168.4" y2="47.01" xlink:href="#linear-gradient"/></defs><title>1</title><path d="M181.74,270.12a5.23,5.23,0,0,1,1.43-.2,5.36,5.36,0,0,1,1.43.19,5.13,5.13,0,0,1,.61-.13l.15-.07H180.9A4.81,4.81,0,0,1,181.74,270.12Z" style="fill:url(#linear-gradient)"/><path d="M341.18,188.24V54.06a12.28,12.28,0,0,0-8-4.83L14.13.14A12.12,12.12,0,0,0,12.27,0,13,13,0,0,0-.46,11.21v.7a.84.84,0,0,1-.06.39.74.74,0,0,0,0,.37v.21a6.88,6.88,0,0,0,.06.86.88.88,0,0,0,.06.34l.07.35v.25a2.94,2.94,0,0,0,.1.58L41.22,211.59a12,12,0,0,0,11.89,9.29q.57,0,1.14,0l128.62-11.34-16.19,44.33A11.84,11.84,0,0,0,171,267.66a12.68,12.68,0,0,0,6,2.25h-2.87l.17.06a5.23,5.23,0,0,1,.7-.06,5.57,5.57,0,0,1,1,.09h.15a5.44,5.44,0,0,1,.81.07,5.43,5.43,0,0,1,1.28-.15,5.78,5.78,0,0,1,.65,0,4.22,4.22,0,0,1,.93-.12h.35a13.2,13.2,0,0,0,5.88-2.32L278.37,201l53.79-4.76a12.39,12.39,0,0,0,9.54-5.76A5,5,0,0,1,341.18,188.24Zm-9.83-4.17-55.86,5.08-91.41,68.56,20.71-62.13-143.42,13L12.27,12.26,331.35,61.35Z" style="fill:url(#linear-gradient-2)"/><path d="M170.81,269.93l.07,0h-4.95l.17.1a6.65,6.65,0,0,1,1.3,0l-.35,0A20.72,20.72,0,0,0,170.81,269.93Z" style="fill:url(#linear-gradient-3)"/><path d="M341.18,188.24V54.06a12.25,12.25,0,0,0-8-4.83L14.14.14A12.27,12.27,0,0,0,.37,15.24L49.43,211.59a12.27,12.27,0,0,0,13,9.24l124.74-11.34-14.74,44.33a12.23,12.23,0,0,0,13,16.05,5.11,5.11,0,0,1,2-.37h0a12.26,12.26,0,0,0,4-2L280,201.05l52.38-4.76a12.26,12.26,0,0,0,9.3-5.72A5,5,0,0,1,341.18,188.24Zm-9.84-4.17-55.86,5.08-91.41,68.56,20.71-62.13-143.43,13L12.27,12.26,331.35,61.35Z" style="fill:#fff"/></svg>