<svg xmlns="http://www.w3.org/2000/svg" xmlns:xlink="http://www.w3.org/1999/xlink" viewBox="0 0 100.91 89.72"><defs><style>.cls-1{fill:none;}.cls-2{isolation:isolate;}.cls-3{mix-blend-mode:multiply;}.cls-4{clip-path:url(#clip-path);}.cls-5{fill:#5a6162;}</style><clipPath id="clip-path"><rect id="SVGID" class="cls-1" width="100.91" height="89.72"/></clipPath></defs><title>lamps</title><g class="cls-2"><g id="Layer_1" data-name="Layer 1"><g class="cls-3"><g class="cls-4"><path class="cls-5" d="M46.94,75.35h4.63v8.39l4.88,1.13V87.3H42.06V84.86l4.88-1.12ZM32.57,73.67H56.86v3a1.55,1.55,0,1,0,1.28,0v-3h7.79L61.35,46.82H38.07Z"/><path class="cls-5" d="M14.74,26.88h2.78V85.49l7.27,1v2.21H7.48V86.51l7.27-1ZM1,25.35H23v12.5a1.3,1.3,0,0,0-.82,1.28,1.4,1.4,0,1,0,2.81,0,1.3,1.3,0,0,0-.82-1.28V25.35h7.07L27.11,1H6Z"/><path class="cls-5" d="M37.47,18.36a1.32,1.32,0,1,0,1.32,1.32,1.32,1.32,0,0,0-1.32-1.32M49.1,12.86a.89.89,0,1,0,.89.89.89.89,0,0,0-.89-.89m41.42,5.49a1.32,1.32,0,1,0,1.32,1.32,1.32,1.32,0,0,0-1.32-1.32M79.65,12.86a.89.89,0,1,0,.89.89.89.89,0,0,0-.89-.89m-12.46.76a10,10,0,0,0,1.73,3.71c1.8,2.34,4.68,3.38,7.34,1.8a6.85,6.85,0,0,0,1.57-1.3,4.15,4.15,0,1,1,3.07,1.35,4.2,4.2,0,0,1-1.07-.14,9.31,9.31,0,0,1-2.39,2.06,7.53,7.53,0,0,1-9.09-1c1.59,3.88,4.77,7.7,9,8.81a9.64,9.64,0,0,0,7.56-1.21,13.13,13.13,0,0,0,3.26-2.78A5.37,5.37,0,1,1,90,26.29,15.5,15.5,0,0,1,86,29.68a11.88,11.88,0,0,1-9.35,1.46c-5.34-1.45-9.27-6.45-11-11.61l0,.05c-1.7,5.07-5.63,10.1-11,11.55a11.88,11.88,0,0,1-9.35-1.46,15.48,15.48,0,0,1-4-3.41,5.38,5.38,0,1,1,1.83-1.4,13.19,13.19,0,0,0,3.29,2.83,9.65,9.65,0,0,0,7.55,1.21c4.15-1.1,7.31-4.85,8.95-8.81a7.53,7.53,0,0,1-9.08,1A9.25,9.25,0,0,1,51.54,19a4.15,4.15,0,1,1,2-1.26,6.89,6.89,0,0,0,1.64,1.38c2.66,1.58,5.55.54,7.34-1.8a10,10,0,0,0,1.73-3.71A8.74,8.74,0,0,1,57,6.13L57,5.67H74.42l-.06.46a8.74,8.74,0,0,1-7.17,7.5"/><path class="cls-5" d="M85.78,60.68a2.39,2.39,0,1,0,2.39,2.39,2.39,2.39,0,0,0-2.39-2.39m0-1.07a3.45,3.45,0,0,0-2.49,5.85h-5A7.54,7.54,0,0,0,81.93,71a4.94,4.94,0,0,0-.37,5.64,8.68,8.68,0,0,0-3.89,10.68H93.89A8.68,8.68,0,0,0,90,76.63,4.94,4.94,0,0,0,89.63,71a7.54,7.54,0,0,0,3.62-5.52h-5a3.45,3.45,0,0,0-2.49-5.85m0-13.38a14.13,14.13,0,0,1,6.13,26.86,6.18,6.18,0,0,0-.56-1.76,8.58,8.58,0,0,0,.94-.9,12,12,0,1,0-13,0,8.6,8.6,0,0,0,.94.9,6.16,6.16,0,0,0-.56,1.76,14.13,14.13,0,0,1,6.14-26.86"/></g></g></g></g></svg>
