<svg xmlns="http://www.w3.org/2000/svg" xmlns:xlink="http://www.w3.org/1999/xlink" viewBox="0 0 72.94 101.67"><defs><style>.cls-1{fill:none;}.cls-2{isolation:isolate;}.cls-3{mix-blend-mode:multiply;}.cls-4{clip-path:url(#clip-path);}.cls-5{fill:#756b66;}</style><clipPath id="clip-path"><rect id="SVGID" class="cls-1" width="72.94" height="101.67"/></clipPath></defs><title>dresser</title><g class="cls-2"><g id="Layer_1" data-name="Layer 1"><g class="cls-3"><g class="cls-4"><path class="cls-5" d="M36.47,48.92c2.58,0,4.67.91,4.67,2S39,53,36.47,53s-4.67-.91-4.67-2,2.09-2,4.67-2M11.57,59.74v-16H61.37v16H59V46.08H13.93V59.74Zm24.9,9.83c2.58,0,4.67.91,4.67,2s-2.09,2-4.67,2-4.67-.91-4.67-2,2.09-2,4.67-2M11.57,80.4v-16H61.37v16H59V66.73H13.93V80.4ZM4.18,39.09V90.56l6.72,0a22.34,22.34,0,0,1-2.6,10.1H13a30.49,30.49,0,0,0,5-10.1H55a30.47,30.47,0,0,0,5,10.1h4.68A22.34,22.34,0,0,1,62,90.57l6.72,0V39.09h3.18V32.63H1v6.46Z"/><path class="cls-5" d="M11.81,20.07,13.05,2.78h1.5l-.23,17.29Zm-5.21,0L10.15,2.78H12l-1.5,17.29Zm15.15,8.66a6.73,6.73,0,0,1,1.12,3.37,1.74,1.74,0,0,1-.08.74H11.95a1.74,1.74,0,0,1-.08-.74A6.73,6.73,0,0,1,13,28.73a7.75,7.75,0,0,1-4-5.7H25.81a7.75,7.75,0,0,1-4.05,5.7M4.42,21.85H30.33L26.77,1H8.69Z"/><path class="cls-5" d="M42.35,25.69a4.93,4.93,0,0,1,.26-5.8H58.67v2H43.6a2.16,2.16,0,0,0,0,2H58.67v1.75H60.5V28H42.72a2.57,2.57,0,0,0,0,2.43H60.5v2.35H41.56l-.36-.44a6.06,6.06,0,0,1,0-6.28l.35-.41h.77Z"/></g></g></g></g></svg>
