<svg xmlns="http://www.w3.org/2000/svg" xmlns:xlink="http://www.w3.org/1999/xlink" viewBox="0 0 78.91 107.49"><defs><style>.cls-1{fill:none;}.cls-2{isolation:isolate;}.cls-3{mix-blend-mode:multiply;}.cls-4{clip-path:url(#clip-path);}.cls-5{fill:#756b66;}</style><clipPath id="clip-path"><rect id="SVGID" class="cls-1" width="78.91" height="107.49"/></clipPath></defs><title>shelf</title><g class="cls-2"><g id="Layer_1" data-name="Layer 1"><g class="cls-3"><g class="cls-4"><path class="cls-5" d="M42.77,67.32h2v5h-2Zm-8.59,0h2v5h-2ZM9.45,63.11h60v33h-60ZM11,64.71H38.64V94.47H11Zm29.23,0H67.87V94.47H40.27ZM9.45,44.44h60V57.62h-60Zm0-17.11h60V40.51h-60Zm0-17.1h60V23.41h-60ZM4,5.13v96.62h6.28a22.27,22.27,0,0,1-.62,4.72h5.45a26.86,26.86,0,0,0,1.8-4.72H62a27,27,0,0,0,1.79,4.72h5.45a22.14,22.14,0,0,1-.62-4.72h6.28V5.13h3V1H1V5.13Z"/></g></g></g></g></svg>
