<svg xmlns="http://www.w3.org/2000/svg" xmlns:xlink="http://www.w3.org/1999/xlink" viewBox="0 0 74.27 66.18"><defs><style>.cls-1{fill:none;}.cls-2{isolation:isolate;}.cls-3{mix-blend-mode:multiply;}.cls-4{clip-path:url(#clip-path);}.cls-5{fill:#63595a;}</style><clipPath id="clip-path" transform="translate(-1 -1)"><rect id="SVGID" class="cls-1" width="76.28" height="68.18"/></clipPath></defs><title>shair</title><g class="cls-2"><g id="Layer_1" data-name="Layer 1"><g class="cls-3"><g class="cls-4"><path class="cls-5" d="M17.92,1a3.69,3.69,0,0,0-3.53,3.53l-1.76,16c3.72,1,7,4,7.51,7.9l1,7.35a85,85,0,0,1,34,0l1-7.38c.53-3.93,3.79-6.89,7.51-7.9l-1.76-16A3.69,3.69,0,0,0,58.36,1Zm3.52,37,1.27,9.36H53.57L54.83,38a85,85,0,0,0-33.4,0M63.24,65.15v2H56.11v-2H20.17v2H13v-2a7.07,7.07,0,0,1-7-5.79C4.08,48.6,2.59,37.75,1.09,26.76c-.46-3.38.73-4.65,4.68-4.65H9.86c4.1,0,7.85,3,8.34,6.58L21,49.33H55.28L58.08,28.7c.49-3.62,4.25-6.58,8.34-6.58H70.5c4,0,5.14,1.26,4.68,4.65-1.5,11-3,21.85-4.95,32.6a7.07,7.07,0,0,1-7,5.78" transform="translate(-1 -1)"/></g></g></g></g></svg>
