<svg id="Layer_1" data-name="Layer 1" xmlns="http://www.w3.org/2000/svg" viewBox="0 0 162.33 151.22"><defs><style>.cls-1{fill:#575757;}.cls-2{fill:#fff;}.cls-3{fill:#555;}</style></defs><title>Untitled-93</title><path class="cls-1" d="M161.71,36.41l-4.32-4.24A4.93,4.93,0,0,0,155.1,31a10.69,10.69,0,0,1-5.5-2.7l-4.29-4.15a6.89,6.89,0,0,1-1.48-2.68c-.88-2.28-2.08-5.41-7.61-9.86l-.75-.6C126.9,4.1,112.56-7.51,80,6.85a2.66,2.66,0,0,0-1.73,2.33,1.87,1.87,0,0,0,.78,1.61,2.55,2.55,0,0,0,1.64.44,3.78,3.78,0,0,0-.36.28,2.51,2.51,0,0,0-.57,3A1.74,1.74,0,0,0,82,15c20.27-8.77,29.93-2.88,34.49,1.37.46,3.11-2.12,7.24-8.55,14L73.12,65.94a3.35,3.35,0,0,0-4.59.16L1,134.92a3.35,3.35,0,0,0,0,4.73l9.19,9a3.35,3.35,0,0,0,4.73,0L82.5,79.82a3.36,3.36,0,0,0,0-4.74l-.18-.18C96.58,60.35,117.57,39,118,38.52c1-1,3.05-2.95,4.75-4.68,2.18-2.21,7.71-1.49,12.33,1.6,6.69,4.49,7.5,7.72,7.54,8.9a3.7,3.7,0,0,0,.93,2.44l4.09,3.93a2.08,2.08,0,0,0,2.91,0l11.14-11.35a2.06,2.06,0,0,0,0-2.91"/><polygon class="cls-2" points="119.13 25.27 78.57 68.6 76.55 66.61 119.13 25.27"/><polygon class="cls-2" points="69.41 74.07 5.27 137.37 67.38 72.09 69.41 74.07"/><path class="cls-2" d="M89.18,5.66a34.59,34.59,0,0,1,6.15-2.24,45.66,45.66,0,0,1,6.61-1.31c1.23-.14,2.5-.28,3.81-.31s2.63,0,4,0,2.64.23,3.93.45a19.26,19.26,0,0,1,1.91.38c.63.13,1.24.31,1.84.48a27.11,27.11,0,0,1,3.39,1.21,23.42,23.42,0,0,1,2.87,1.45,25.59,25.59,0,0,1,2.27,1.47c.64.49,1.18.94,1.61,1.31.84.79,1.3,1.25,1.3,1.25s-.56-.34-1.52-.95l-1.78-1c-.71-.34-1.48-.76-2.37-1.12-.44-.19-.89-.39-1.38-.56s-1-.39-1.5-.54c-1-.35-2.15-.65-3.3-.92s-2.37-.48-3.6-.66-2.5-.29-3.77-.37-2.54-.12-3.8-.1-2.49.05-3.69.14-2.35.18-3.45.31-2.13.26-3.09.4c-3.83.58-6.37,1.18-6.37,1.18"/><path class="cls-3" d="M156.86,136.49l-3-3a1.73,1.73,0,0,0-.41-2L117.91,95.58a13.11,13.11,0,0,0-6.64-4,6.62,6.62,0,0,1-3.45-1.85,5.94,5.94,0,0,1-1.69-3.25c-.44-1.7-1-3.81-4.3-7.16-3.74-3.78-5.78-5.55-8.85-4.13l-.09-.1-3.33-3.36a2,2,0,0,0-2.31-.35,145.28,145.28,0,0,1-16-12.56,11.61,11.61,0,0,1-3.88-8.56l0-.36-.25-.26L18.71.76l-10.13,10L57.27,60l.36,0a11.61,11.61,0,0,1,8.52,4A144.55,144.55,0,0,1,78.5,80a2,2,0,0,0,0,2.73L81.86,86a2.25,2.25,0,0,0,.28.23c-1,2.77.76,4.79,4.27,8.34C89.72,98,91.83,98.53,93.53,99a6,6,0,0,1,3.23,1.73,6.61,6.61,0,0,1,1.81,3.47,13.09,13.09,0,0,0,3.91,6.67L138,146.72a1.72,1.72,0,0,0,2,.43l3,3.05a3.23,3.23,0,0,0,2.36,1c2.34,0,4.75-2.43,6.68-4.39l.65-.65.69-.68c2-1.91,4.42-4.3,4.45-6.63a3.25,3.25,0,0,0-1-2.37"/><polygon class="cls-2" points="14.68 9.24 58.57 55.54 12.71 11.2 14.68 9.24"/></svg>