<svg id="Layer_1" data-name="Layer 1" xmlns="http://www.w3.org/2000/svg" viewBox="0 0 63.78 36.94"><defs><style>.cls-1{fill:#555;}</style></defs><title>Untitled-94</title><polygon class="cls-1" points="48.07 32.89 38.11 20.82 44.32 20.82 36.67 11.56 41.44 11.56 31.89 0 22.34 11.56 27.12 11.56 19.46 20.82 25.68 20.82 15.71 32.89 29.93 32.89 29.93 36.94 33.85 36.94 33.85 32.89 48.07 32.89"/><polygon class="cls-1" points="63.78 21.02 59.14 15.4 62.03 15.4 58.47 11.08 60.69 11.08 56.24 5.69 51.78 11.08 54.01 11.08 50.44 15.4 53.34 15.4 48.69 21.02 55.32 21.02 55.32 22.92 57.15 22.92 57.15 21.02 63.78 21.02"/><polygon class="cls-1" points="15.09 21.02 10.45 15.4 13.34 15.4 9.77 11.08 12 11.08 7.55 5.69 3.09 11.08 5.32 11.08 1.75 15.4 4.65 15.4 0 21.02 6.63 21.02 6.63 22.92 8.46 22.92 8.46 21.02 15.09 21.02"/></svg>